<?xml version="1.0" encoding="utf-8" standalone="no"?>
<!DOCTYPE svg PUBLIC "-//W3C//DTD SVG 1.1//EN"
  "http://www.w3.org/Graphics/SVG/1.1/DTD/svg11.dtd">
<svg xmlns:xlink="http://www.w3.org/1999/xlink" width="460.8pt" height="345.6pt" viewBox="0 0 460.8 345.6" xmlns="http://www.w3.org/2000/svg" version="1.1">
 <metadata>
  <rdf:RDF xmlns:dc="http://purl.org/dc/elements/1.1/" xmlns:cc="http://creativecommons.org/ns#" xmlns:rdf="http://www.w3.org/1999/02/22-rdf-syntax-ns#">
   <cc:Work>
    <dc:type rdf:resource="http://purl.org/dc/dcmitype/StillImage"/>
    <dc:date>2024-11-05T16:23:10.290647</dc:date>
    <dc:format>image/svg+xml</dc:format>
    <dc:creator>
     <cc:Agent>
      <dc:title>Matplotlib v3.8.4, https://matplotlib.org/</dc:title>
     </cc:Agent>
    </dc:creator>
   </cc:Work>
  </rdf:RDF>
 </metadata>
 <defs>
  <style type="text/css">*{stroke-linejoin: round; stroke-linecap: butt}</style>
 </defs>
 <g id="figure_1">
  <g id="patch_1">
   <path d="M 0 345.6 
L 460.8 345.6 
L 460.8 0 
L 0 0 
z
" style="fill: #ffffff"/>
  </g>
  <g id="axes_1">
   <g id="patch_2">
    <path d="M 57.6 307.584 
L 414.72 307.584 
L 414.72 41.472 
L 57.6 41.472 
z
" style="fill: #ffffff"/>
   </g>
   <g id="patch_3">
    <path d="M 73.832727 307.584 
L 83.670744 307.584 
L 83.670744 305.123417 
L 73.832727 305.123417 
z
" clip-path="url(#p3347702acb)" style="fill: #0000ff; fill-opacity: 0.5"/>
   </g>
   <g id="patch_4">
    <path d="M 83.670744 307.584 
L 93.50876 307.584 
L 93.50876 247.914874 
L 83.670744 247.914874 
z
" clip-path="url(#p3347702acb)" style="fill: #0000ff; fill-opacity: 0.5"/>
   </g>
   <g id="patch_5">
    <path d="M 93.50876 307.584 
L 103.346777 307.584 
L 103.346777 286.053903 
L 93.50876 286.053903 
z
" clip-path="url(#p3347702acb)" style="fill: #0000ff; fill-opacity: 0.5"/>
   </g>
   <g id="patch_6">
    <path d="M 103.346777 307.584 
L 113.184793 307.584 
L 113.184793 212.236427 
L 103.346777 212.236427 
z
" clip-path="url(#p3347702acb)" style="fill: #0000ff; fill-opacity: 0.5"/>
   </g>
   <g id="patch_7">
    <path d="M 113.184793 307.584 
L 123.02281 307.584 
L 123.02281 251.605748 
L 113.184793 251.605748 
z
" clip-path="url(#p3347702acb)" style="fill: #0000ff; fill-opacity: 0.5"/>
   </g>
   <g id="patch_8">
    <path d="M 123.02281 307.584 
L 132.860826 307.584 
L 132.860826 225.769631 
L 123.02281 225.769631 
z
" clip-path="url(#p3347702acb)" style="fill: #0000ff; fill-opacity: 0.5"/>
   </g>
   <g id="patch_9">
    <path d="M 132.860826 307.584 
L 142.698843 307.584 
L 142.698843 232.536233 
L 132.860826 232.536233 
z
" clip-path="url(#p3347702acb)" style="fill: #0000ff; fill-opacity: 0.5"/>
   </g>
   <g id="patch_10">
    <path d="M 142.698843 307.584 
L 152.53686 307.584 
L 152.53686 193.166913 
L 142.698843 193.166913 
z
" clip-path="url(#p3347702acb)" style="fill: #0000ff; fill-opacity: 0.5"/>
   </g>
   <g id="patch_11">
    <path d="M 152.53686 307.584 
L 162.374876 307.584 
L 162.374876 145.185553 
L 152.53686 145.185553 
z
" clip-path="url(#p3347702acb)" style="fill: #0000ff; fill-opacity: 0.5"/>
   </g>
   <g id="patch_12">
    <path d="M 162.374876 307.584 
L 172.212893 307.584 
L 172.212893 123.040311 
L 162.374876 123.040311 
z
" clip-path="url(#p3347702acb)" style="fill: #0000ff; fill-opacity: 0.5"/>
   </g>
   <g id="patch_13">
    <path d="M 172.212893 307.584 
L 182.050909 307.584 
L 182.050909 127.34633 
L 172.212893 127.34633 
z
" clip-path="url(#p3347702acb)" style="fill: #0000ff; fill-opacity: 0.5"/>
   </g>
   <g id="patch_14">
    <path d="M 182.050909 307.584 
L 191.888926 307.584 
L 191.888926 130.422058 
L 182.050909 130.422058 
z
" clip-path="url(#p3347702acb)" style="fill: #0000ff; fill-opacity: 0.5"/>
   </g>
   <g id="patch_15">
    <path d="M 191.888926 307.584 
L 201.726942 307.584 
L 201.726942 157.488466 
L 191.888926 157.488466 
z
" clip-path="url(#p3347702acb)" style="fill: #0000ff; fill-opacity: 0.5"/>
   </g>
   <g id="patch_16">
    <path d="M 201.726942 307.584 
L 211.564959 307.584 
L 211.564959 175.327689 
L 201.726942 175.327689 
z
" clip-path="url(#p3347702acb)" style="fill: #0000ff; fill-opacity: 0.5"/>
   </g>
   <g id="patch_17">
    <path d="M 211.564959 307.584 
L 221.402975 307.584 
L 221.402975 147.03099 
L 211.564959 147.03099 
z
" clip-path="url(#p3347702acb)" style="fill: #0000ff; fill-opacity: 0.5"/>
   </g>
   <g id="patch_18">
    <path d="M 221.402975 307.584 
L 231.240992 307.584 
L 231.240992 206.084971 
L 221.402975 206.084971 
z
" clip-path="url(#p3347702acb)" style="fill: #0000ff; fill-opacity: 0.5"/>
   </g>
   <g id="patch_19">
    <path d="M 231.240992 307.584 
L 241.079008 307.584 
L 241.079008 54.144 
L 231.240992 54.144 
z
" clip-path="url(#p3347702acb)" style="fill: #0000ff; fill-opacity: 0.5"/>
   </g>
   <g id="patch_20">
    <path d="M 241.079008 307.584 
L 250.917025 307.584 
L 250.917025 167.945942 
L 241.079008 167.945942 
z
" clip-path="url(#p3347702acb)" style="fill: #0000ff; fill-opacity: 0.5"/>
   </g>
   <g id="patch_21">
    <path d="M 250.917025 307.584 
L 260.755041 307.584 
L 260.755041 115.658563 
L 250.917025 115.658563 
z
" clip-path="url(#p3347702acb)" style="fill: #0000ff; fill-opacity: 0.5"/>
   </g>
   <g id="patch_22">
    <path d="M 260.755041 307.584 
L 270.593058 307.584 
L 270.593058 233.151379 
L 260.755041 233.151379 
z
" clip-path="url(#p3347702acb)" style="fill: #0000ff; fill-opacity: 0.5"/>
   </g>
   <g id="patch_23">
    <path d="M 270.593058 307.584 
L 280.431074 307.584 
L 280.431074 233.766524 
L 270.593058 233.766524 
z
" clip-path="url(#p3347702acb)" style="fill: #0000ff; fill-opacity: 0.5"/>
   </g>
   <g id="patch_24">
    <path d="M 280.431074 307.584 
L 290.269091 307.584 
L 290.269091 261.448078 
L 280.431074 261.448078 
z
" clip-path="url(#p3347702acb)" style="fill: #0000ff; fill-opacity: 0.5"/>
   </g>
   <g id="patch_25">
    <path d="M 290.269091 307.584 
L 300.107107 307.584 
L 300.107107 271.290408 
L 290.269091 271.290408 
z
" clip-path="url(#p3347702acb)" style="fill: #0000ff; fill-opacity: 0.5"/>
   </g>
   <g id="patch_26">
    <path d="M 300.107107 307.584 
L 309.945124 307.584 
L 309.945124 280.517592 
L 300.107107 280.517592 
z
" clip-path="url(#p3347702acb)" style="fill: #0000ff; fill-opacity: 0.5"/>
   </g>
   <g id="patch_27">
    <path d="M 309.945124 307.584 
L 319.78314 307.584 
L 319.78314 298.356816 
L 309.945124 298.356816 
z
" clip-path="url(#p3347702acb)" style="fill: #0000ff; fill-opacity: 0.5"/>
   </g>
   <g id="patch_28">
    <path d="M 319.78314 307.584 
L 329.621157 307.584 
L 329.621157 257.757204 
L 319.78314 257.757204 
z
" clip-path="url(#p3347702acb)" style="fill: #0000ff; fill-opacity: 0.5"/>
   </g>
   <g id="patch_29">
    <path d="M 329.621157 307.584 
L 339.459174 307.584 
L 339.459174 307.584 
L 329.621157 307.584 
z
" clip-path="url(#p3347702acb)" style="fill: #0000ff; fill-opacity: 0.5"/>
   </g>
   <g id="patch_30">
    <path d="M 339.459174 307.584 
L 349.29719 307.584 
L 349.29719 270.675262 
L 339.459174 270.675262 
z
" clip-path="url(#p3347702acb)" style="fill: #0000ff; fill-opacity: 0.5"/>
   </g>
   <g id="patch_31">
    <path d="M 349.29719 307.584 
L 359.135207 307.584 
L 359.135207 303.893126 
L 349.29719 303.893126 
z
" clip-path="url(#p3347702acb)" style="fill: #0000ff; fill-opacity: 0.5"/>
   </g>
   <g id="patch_32">
    <path d="M 359.135207 307.584 
L 368.973223 307.584 
L 368.973223 306.968854 
L 359.135207 306.968854 
z
" clip-path="url(#p3347702acb)" style="fill: #0000ff; fill-opacity: 0.5"/>
   </g>
   <g id="patch_33">
    <path d="M 368.973223 307.584 
L 378.81124 307.584 
L 378.81124 307.584 
L 368.973223 307.584 
z
" clip-path="url(#p3347702acb)" style="fill: #0000ff; fill-opacity: 0.5"/>
   </g>
   <g id="patch_34">
    <path d="M 378.81124 307.584 
L 388.649256 307.584 
L 388.649256 294.050796 
L 378.81124 294.050796 
z
" clip-path="url(#p3347702acb)" style="fill: #0000ff; fill-opacity: 0.5"/>
   </g>
   <g id="patch_35">
    <path d="M 388.649256 307.584 
L 398.487273 307.584 
L 398.487273 305.123417 
L 388.649256 305.123417 
z
" clip-path="url(#p3347702acb)" style="fill: #0000ff; fill-opacity: 0.5"/>
   </g>
   <g id="matplotlib.axis_1">
    <g id="xtick_1">
     <g id="line2d_1">
      <defs>
       <path id="m363d54efee" d="M 0 0 
L 0 3.5 
" style="stroke: #000000; stroke-width: 0.8"/>
      </defs>
      <g>
       <use xlink:href="#m363d54efee" x="81.562597" y="307.584" style="stroke: #000000; stroke-width: 0.8"/>
      </g>
     </g>
     <g id="text_1">
      <!-- 1.0 -->
      <g transform="translate(73.611035 322.182437) scale(0.1 -0.1)">
       <defs>
        <path id="DejaVuSans-31" d="M 794 531 
L 1825 531 
L 1825 4091 
L 703 3866 
L 703 4441 
L 1819 4666 
L 2450 4666 
L 2450 531 
L 3481 531 
L 3481 0 
L 794 0 
L 794 531 
z
" transform="scale(0.015625)"/>
        <path id="DejaVuSans-2e" d="M 684 794 
L 1344 794 
L 1344 0 
L 684 0 
L 684 794 
z
" transform="scale(0.015625)"/>
        <path id="DejaVuSans-30" d="M 2034 4250 
Q 1547 4250 1301 3770 
Q 1056 3291 1056 2328 
Q 1056 1369 1301 889 
Q 1547 409 2034 409 
Q 2525 409 2770 889 
Q 3016 1369 3016 2328 
Q 3016 3291 2770 3770 
Q 2525 4250 2034 4250 
z
M 2034 4750 
Q 2819 4750 3233 4129 
Q 3647 3509 3647 2328 
Q 3647 1150 3233 529 
Q 2819 -91 2034 -91 
Q 1250 -91 836 529 
Q 422 1150 422 2328 
Q 422 3509 836 4129 
Q 1250 4750 2034 4750 
z
" transform="scale(0.015625)"/>
       </defs>
       <use xlink:href="#DejaVuSans-31"/>
       <use xlink:href="#DejaVuSans-2e" x="63.623047"/>
       <use xlink:href="#DejaVuSans-30" x="95.410156"/>
      </g>
     </g>
    </g>
    <g id="xtick_2">
     <g id="line2d_2">
      <g>
       <use xlink:href="#m363d54efee" x="158.861299" y="307.584" style="stroke: #000000; stroke-width: 0.8"/>
      </g>
     </g>
     <g id="text_2">
      <!-- 1.2 -->
      <g transform="translate(150.909736 322.182437) scale(0.1 -0.1)">
       <defs>
        <path id="DejaVuSans-32" d="M 1228 531 
L 3431 531 
L 3431 0 
L 469 0 
L 469 531 
Q 828 903 1448 1529 
Q 2069 2156 2228 2338 
Q 2531 2678 2651 2914 
Q 2772 3150 2772 3378 
Q 2772 3750 2511 3984 
Q 2250 4219 1831 4219 
Q 1534 4219 1204 4116 
Q 875 4013 500 3803 
L 500 4441 
Q 881 4594 1212 4672 
Q 1544 4750 1819 4750 
Q 2544 4750 2975 4387 
Q 3406 4025 3406 3419 
Q 3406 3131 3298 2873 
Q 3191 2616 2906 2266 
Q 2828 2175 2409 1742 
Q 1991 1309 1228 531 
z
" transform="scale(0.015625)"/>
       </defs>
       <use xlink:href="#DejaVuSans-31"/>
       <use xlink:href="#DejaVuSans-2e" x="63.623047"/>
       <use xlink:href="#DejaVuSans-32" x="95.410156"/>
      </g>
     </g>
    </g>
    <g id="xtick_3">
     <g id="line2d_3">
      <g>
       <use xlink:href="#m363d54efee" x="236.16" y="307.584" style="stroke: #000000; stroke-width: 0.8"/>
      </g>
     </g>
     <g id="text_3">
      <!-- 1.4 -->
      <g transform="translate(228.208438 322.182437) scale(0.1 -0.1)">
       <defs>
        <path id="DejaVuSans-34" d="M 2419 4116 
L 825 1625 
L 2419 1625 
L 2419 4116 
z
M 2253 4666 
L 3047 4666 
L 3047 1625 
L 3713 1625 
L 3713 1100 
L 3047 1100 
L 3047 0 
L 2419 0 
L 2419 1100 
L 313 1100 
L 313 1709 
L 2253 4666 
z
" transform="scale(0.015625)"/>
       </defs>
       <use xlink:href="#DejaVuSans-31"/>
       <use xlink:href="#DejaVuSans-2e" x="63.623047"/>
       <use xlink:href="#DejaVuSans-34" x="95.410156"/>
      </g>
     </g>
    </g>
    <g id="xtick_4">
     <g id="line2d_4">
      <g>
       <use xlink:href="#m363d54efee" x="313.458701" y="307.584" style="stroke: #000000; stroke-width: 0.8"/>
      </g>
     </g>
     <g id="text_4">
      <!-- 1.6 -->
      <g transform="translate(305.507139 322.182437) scale(0.1 -0.1)">
       <defs>
        <path id="DejaVuSans-36" d="M 2113 2584 
Q 1688 2584 1439 2293 
Q 1191 2003 1191 1497 
Q 1191 994 1439 701 
Q 1688 409 2113 409 
Q 2538 409 2786 701 
Q 3034 994 3034 1497 
Q 3034 2003 2786 2293 
Q 2538 2584 2113 2584 
z
M 3366 4563 
L 3366 3988 
Q 3128 4100 2886 4159 
Q 2644 4219 2406 4219 
Q 1781 4219 1451 3797 
Q 1122 3375 1075 2522 
Q 1259 2794 1537 2939 
Q 1816 3084 2150 3084 
Q 2853 3084 3261 2657 
Q 3669 2231 3669 1497 
Q 3669 778 3244 343 
Q 2819 -91 2113 -91 
Q 1303 -91 875 529 
Q 447 1150 447 2328 
Q 447 3434 972 4092 
Q 1497 4750 2381 4750 
Q 2619 4750 2861 4703 
Q 3103 4656 3366 4563 
z
" transform="scale(0.015625)"/>
       </defs>
       <use xlink:href="#DejaVuSans-31"/>
       <use xlink:href="#DejaVuSans-2e" x="63.623047"/>
       <use xlink:href="#DejaVuSans-36" x="95.410156"/>
      </g>
     </g>
    </g>
    <g id="xtick_5">
     <g id="line2d_5">
      <g>
       <use xlink:href="#m363d54efee" x="390.757403" y="307.584" style="stroke: #000000; stroke-width: 0.8"/>
      </g>
     </g>
     <g id="text_5">
      <!-- 1.8 -->
      <g transform="translate(382.80584 322.182437) scale(0.1 -0.1)">
       <defs>
        <path id="DejaVuSans-38" d="M 2034 2216 
Q 1584 2216 1326 1975 
Q 1069 1734 1069 1313 
Q 1069 891 1326 650 
Q 1584 409 2034 409 
Q 2484 409 2743 651 
Q 3003 894 3003 1313 
Q 3003 1734 2745 1975 
Q 2488 2216 2034 2216 
z
M 1403 2484 
Q 997 2584 770 2862 
Q 544 3141 544 3541 
Q 544 4100 942 4425 
Q 1341 4750 2034 4750 
Q 2731 4750 3128 4425 
Q 3525 4100 3525 3541 
Q 3525 3141 3298 2862 
Q 3072 2584 2669 2484 
Q 3125 2378 3379 2068 
Q 3634 1759 3634 1313 
Q 3634 634 3220 271 
Q 2806 -91 2034 -91 
Q 1263 -91 848 271 
Q 434 634 434 1313 
Q 434 1759 690 2068 
Q 947 2378 1403 2484 
z
M 1172 3481 
Q 1172 3119 1398 2916 
Q 1625 2713 2034 2713 
Q 2441 2713 2670 2916 
Q 2900 3119 2900 3481 
Q 2900 3844 2670 4047 
Q 2441 4250 2034 4250 
Q 1625 4250 1398 4047 
Q 1172 3844 1172 3481 
z
" transform="scale(0.015625)"/>
       </defs>
       <use xlink:href="#DejaVuSans-31"/>
       <use xlink:href="#DejaVuSans-2e" x="63.623047"/>
       <use xlink:href="#DejaVuSans-38" x="95.410156"/>
      </g>
     </g>
    </g>
    <g id="text_6">
     <!-- maxSP -->
     <g transform="translate(219.077188 335.860562) scale(0.1 -0.1)">
      <defs>
       <path id="DejaVuSans-6d" d="M 3328 2828 
Q 3544 3216 3844 3400 
Q 4144 3584 4550 3584 
Q 5097 3584 5394 3201 
Q 5691 2819 5691 2113 
L 5691 0 
L 5113 0 
L 5113 2094 
Q 5113 2597 4934 2840 
Q 4756 3084 4391 3084 
Q 3944 3084 3684 2787 
Q 3425 2491 3425 1978 
L 3425 0 
L 2847 0 
L 2847 2094 
Q 2847 2600 2669 2842 
Q 2491 3084 2119 3084 
Q 1678 3084 1418 2786 
Q 1159 2488 1159 1978 
L 1159 0 
L 581 0 
L 581 3500 
L 1159 3500 
L 1159 2956 
Q 1356 3278 1631 3431 
Q 1906 3584 2284 3584 
Q 2666 3584 2933 3390 
Q 3200 3197 3328 2828 
z
" transform="scale(0.015625)"/>
       <path id="DejaVuSans-61" d="M 2194 1759 
Q 1497 1759 1228 1600 
Q 959 1441 959 1056 
Q 959 750 1161 570 
Q 1363 391 1709 391 
Q 2188 391 2477 730 
Q 2766 1069 2766 1631 
L 2766 1759 
L 2194 1759 
z
M 3341 1997 
L 3341 0 
L 2766 0 
L 2766 531 
Q 2569 213 2275 61 
Q 1981 -91 1556 -91 
Q 1019 -91 701 211 
Q 384 513 384 1019 
Q 384 1609 779 1909 
Q 1175 2209 1959 2209 
L 2766 2209 
L 2766 2266 
Q 2766 2663 2505 2880 
Q 2244 3097 1772 3097 
Q 1472 3097 1187 3025 
Q 903 2953 641 2809 
L 641 3341 
Q 956 3463 1253 3523 
Q 1550 3584 1831 3584 
Q 2591 3584 2966 3190 
Q 3341 2797 3341 1997 
z
" transform="scale(0.015625)"/>
       <path id="DejaVuSans-78" d="M 3513 3500 
L 2247 1797 
L 3578 0 
L 2900 0 
L 1881 1375 
L 863 0 
L 184 0 
L 1544 1831 
L 300 3500 
L 978 3500 
L 1906 2253 
L 2834 3500 
L 3513 3500 
z
" transform="scale(0.015625)"/>
       <path id="DejaVuSans-53" d="M 3425 4513 
L 3425 3897 
Q 3066 4069 2747 4153 
Q 2428 4238 2131 4238 
Q 1616 4238 1336 4038 
Q 1056 3838 1056 3469 
Q 1056 3159 1242 3001 
Q 1428 2844 1947 2747 
L 2328 2669 
Q 3034 2534 3370 2195 
Q 3706 1856 3706 1288 
Q 3706 609 3251 259 
Q 2797 -91 1919 -91 
Q 1588 -91 1214 -16 
Q 841 59 441 206 
L 441 856 
Q 825 641 1194 531 
Q 1563 422 1919 422 
Q 2459 422 2753 634 
Q 3047 847 3047 1241 
Q 3047 1584 2836 1778 
Q 2625 1972 2144 2069 
L 1759 2144 
Q 1053 2284 737 2584 
Q 422 2884 422 3419 
Q 422 4038 858 4394 
Q 1294 4750 2059 4750 
Q 2388 4750 2728 4690 
Q 3069 4631 3425 4513 
z
" transform="scale(0.015625)"/>
       <path id="DejaVuSans-50" d="M 1259 4147 
L 1259 2394 
L 2053 2394 
Q 2494 2394 2734 2622 
Q 2975 2850 2975 3272 
Q 2975 3691 2734 3919 
Q 2494 4147 2053 4147 
L 1259 4147 
z
M 628 4666 
L 2053 4666 
Q 2838 4666 3239 4311 
Q 3641 3956 3641 3272 
Q 3641 2581 3239 2228 
Q 2838 1875 2053 1875 
L 1259 1875 
L 1259 0 
L 628 0 
L 628 4666 
z
" transform="scale(0.015625)"/>
      </defs>
      <use xlink:href="#DejaVuSans-6d"/>
      <use xlink:href="#DejaVuSans-61" x="97.412109"/>
      <use xlink:href="#DejaVuSans-78" x="158.691406"/>
      <use xlink:href="#DejaVuSans-53" x="217.871094"/>
      <use xlink:href="#DejaVuSans-50" x="281.347656"/>
     </g>
    </g>
   </g>
   <g id="matplotlib.axis_2">
    <g id="ytick_1">
     <g id="line2d_6">
      <defs>
       <path id="m050b5497bc" d="M 0 0 
L -3.5 0 
" style="stroke: #000000; stroke-width: 0.8"/>
      </defs>
      <g>
       <use xlink:href="#m050b5497bc" x="57.6" y="307.584" style="stroke: #000000; stroke-width: 0.8"/>
      </g>
     </g>
     <g id="text_7">
      <!-- 0.0 -->
      <g transform="translate(34.696875 311.383219) scale(0.1 -0.1)">
       <use xlink:href="#DejaVuSans-30"/>
       <use xlink:href="#DejaVuSans-2e" x="63.623047"/>
       <use xlink:href="#DejaVuSans-30" x="95.410156"/>
      </g>
     </g>
    </g>
    <g id="ytick_2">
     <g id="line2d_7">
      <g>
       <use xlink:href="#m050b5497bc" x="57.6" y="273.041895" style="stroke: #000000; stroke-width: 0.8"/>
      </g>
     </g>
     <g id="text_8">
      <!-- 0.5 -->
      <g transform="translate(34.696875 276.841114) scale(0.1 -0.1)">
       <defs>
        <path id="DejaVuSans-35" d="M 691 4666 
L 3169 4666 
L 3169 4134 
L 1269 4134 
L 1269 2991 
Q 1406 3038 1543 3061 
Q 1681 3084 1819 3084 
Q 2600 3084 3056 2656 
Q 3513 2228 3513 1497 
Q 3513 744 3044 326 
Q 2575 -91 1722 -91 
Q 1428 -91 1123 -41 
Q 819 9 494 109 
L 494 744 
Q 775 591 1075 516 
Q 1375 441 1709 441 
Q 2250 441 2565 725 
Q 2881 1009 2881 1497 
Q 2881 1984 2565 2268 
Q 2250 2553 1709 2553 
Q 1456 2553 1204 2497 
Q 953 2441 691 2322 
L 691 4666 
z
" transform="scale(0.015625)"/>
       </defs>
       <use xlink:href="#DejaVuSans-30"/>
       <use xlink:href="#DejaVuSans-2e" x="63.623047"/>
       <use xlink:href="#DejaVuSans-35" x="95.410156"/>
      </g>
     </g>
    </g>
    <g id="ytick_3">
     <g id="line2d_8">
      <g>
       <use xlink:href="#m050b5497bc" x="57.6" y="238.49979" style="stroke: #000000; stroke-width: 0.8"/>
      </g>
     </g>
     <g id="text_9">
      <!-- 1.0 -->
      <g transform="translate(34.696875 242.299009) scale(0.1 -0.1)">
       <use xlink:href="#DejaVuSans-31"/>
       <use xlink:href="#DejaVuSans-2e" x="63.623047"/>
       <use xlink:href="#DejaVuSans-30" x="95.410156"/>
      </g>
     </g>
    </g>
    <g id="ytick_4">
     <g id="line2d_9">
      <g>
       <use xlink:href="#m050b5497bc" x="57.6" y="203.957685" style="stroke: #000000; stroke-width: 0.8"/>
      </g>
     </g>
     <g id="text_10">
      <!-- 1.5 -->
      <g transform="translate(34.696875 207.756904) scale(0.1 -0.1)">
       <use xlink:href="#DejaVuSans-31"/>
       <use xlink:href="#DejaVuSans-2e" x="63.623047"/>
       <use xlink:href="#DejaVuSans-35" x="95.410156"/>
      </g>
     </g>
    </g>
    <g id="ytick_5">
     <g id="line2d_10">
      <g>
       <use xlink:href="#m050b5497bc" x="57.6" y="169.415581" style="stroke: #000000; stroke-width: 0.8"/>
      </g>
     </g>
     <g id="text_11">
      <!-- 2.0 -->
      <g transform="translate(34.696875 173.214799) scale(0.1 -0.1)">
       <use xlink:href="#DejaVuSans-32"/>
       <use xlink:href="#DejaVuSans-2e" x="63.623047"/>
       <use xlink:href="#DejaVuSans-30" x="95.410156"/>
      </g>
     </g>
    </g>
    <g id="ytick_6">
     <g id="line2d_11">
      <g>
       <use xlink:href="#m050b5497bc" x="57.6" y="134.873476" style="stroke: #000000; stroke-width: 0.8"/>
      </g>
     </g>
     <g id="text_12">
      <!-- 2.5 -->
      <g transform="translate(34.696875 138.672694) scale(0.1 -0.1)">
       <use xlink:href="#DejaVuSans-32"/>
       <use xlink:href="#DejaVuSans-2e" x="63.623047"/>
       <use xlink:href="#DejaVuSans-35" x="95.410156"/>
      </g>
     </g>
    </g>
    <g id="ytick_7">
     <g id="line2d_12">
      <g>
       <use xlink:href="#m050b5497bc" x="57.6" y="100.331371" style="stroke: #000000; stroke-width: 0.8"/>
      </g>
     </g>
     <g id="text_13">
      <!-- 3.0 -->
      <g transform="translate(34.696875 104.13059) scale(0.1 -0.1)">
       <defs>
        <path id="DejaVuSans-33" d="M 2597 2516 
Q 3050 2419 3304 2112 
Q 3559 1806 3559 1356 
Q 3559 666 3084 287 
Q 2609 -91 1734 -91 
Q 1441 -91 1130 -33 
Q 819 25 488 141 
L 488 750 
Q 750 597 1062 519 
Q 1375 441 1716 441 
Q 2309 441 2620 675 
Q 2931 909 2931 1356 
Q 2931 1769 2642 2001 
Q 2353 2234 1838 2234 
L 1294 2234 
L 1294 2753 
L 1863 2753 
Q 2328 2753 2575 2939 
Q 2822 3125 2822 3475 
Q 2822 3834 2567 4026 
Q 2313 4219 1838 4219 
Q 1578 4219 1281 4162 
Q 984 4106 628 3988 
L 628 4550 
Q 988 4650 1302 4700 
Q 1616 4750 1894 4750 
Q 2613 4750 3031 4423 
Q 3450 4097 3450 3541 
Q 3450 3153 3228 2886 
Q 3006 2619 2597 2516 
z
" transform="scale(0.015625)"/>
       </defs>
       <use xlink:href="#DejaVuSans-33"/>
       <use xlink:href="#DejaVuSans-2e" x="63.623047"/>
       <use xlink:href="#DejaVuSans-30" x="95.410156"/>
      </g>
     </g>
    </g>
    <g id="ytick_8">
     <g id="line2d_13">
      <g>
       <use xlink:href="#m050b5497bc" x="57.6" y="65.789266" style="stroke: #000000; stroke-width: 0.8"/>
      </g>
     </g>
     <g id="text_14">
      <!-- 3.5 -->
      <g transform="translate(34.696875 69.588485) scale(0.1 -0.1)">
       <use xlink:href="#DejaVuSans-33"/>
       <use xlink:href="#DejaVuSans-2e" x="63.623047"/>
       <use xlink:href="#DejaVuSans-35" x="95.410156"/>
      </g>
     </g>
    </g>
    <g id="text_15">
     <!-- Density -->
     <g transform="translate(28.617187 193.536594) rotate(-90) scale(0.1 -0.1)">
      <defs>
       <path id="DejaVuSans-44" d="M 1259 4147 
L 1259 519 
L 2022 519 
Q 2988 519 3436 956 
Q 3884 1394 3884 2338 
Q 3884 3275 3436 3711 
Q 2988 4147 2022 4147 
L 1259 4147 
z
M 628 4666 
L 1925 4666 
Q 3281 4666 3915 4102 
Q 4550 3538 4550 2338 
Q 4550 1131 3912 565 
Q 3275 0 1925 0 
L 628 0 
L 628 4666 
z
" transform="scale(0.015625)"/>
       <path id="DejaVuSans-65" d="M 3597 1894 
L 3597 1613 
L 953 1613 
Q 991 1019 1311 708 
Q 1631 397 2203 397 
Q 2534 397 2845 478 
Q 3156 559 3463 722 
L 3463 178 
Q 3153 47 2828 -22 
Q 2503 -91 2169 -91 
Q 1331 -91 842 396 
Q 353 884 353 1716 
Q 353 2575 817 3079 
Q 1281 3584 2069 3584 
Q 2775 3584 3186 3129 
Q 3597 2675 3597 1894 
z
M 3022 2063 
Q 3016 2534 2758 2815 
Q 2500 3097 2075 3097 
Q 1594 3097 1305 2825 
Q 1016 2553 972 2059 
L 3022 2063 
z
" transform="scale(0.015625)"/>
       <path id="DejaVuSans-6e" d="M 3513 2113 
L 3513 0 
L 2938 0 
L 2938 2094 
Q 2938 2591 2744 2837 
Q 2550 3084 2163 3084 
Q 1697 3084 1428 2787 
Q 1159 2491 1159 1978 
L 1159 0 
L 581 0 
L 581 3500 
L 1159 3500 
L 1159 2956 
Q 1366 3272 1645 3428 
Q 1925 3584 2291 3584 
Q 2894 3584 3203 3211 
Q 3513 2838 3513 2113 
z
" transform="scale(0.015625)"/>
       <path id="DejaVuSans-73" d="M 2834 3397 
L 2834 2853 
Q 2591 2978 2328 3040 
Q 2066 3103 1784 3103 
Q 1356 3103 1142 2972 
Q 928 2841 928 2578 
Q 928 2378 1081 2264 
Q 1234 2150 1697 2047 
L 1894 2003 
Q 2506 1872 2764 1633 
Q 3022 1394 3022 966 
Q 3022 478 2636 193 
Q 2250 -91 1575 -91 
Q 1294 -91 989 -36 
Q 684 19 347 128 
L 347 722 
Q 666 556 975 473 
Q 1284 391 1588 391 
Q 1994 391 2212 530 
Q 2431 669 2431 922 
Q 2431 1156 2273 1281 
Q 2116 1406 1581 1522 
L 1381 1569 
Q 847 1681 609 1914 
Q 372 2147 372 2553 
Q 372 3047 722 3315 
Q 1072 3584 1716 3584 
Q 2034 3584 2315 3537 
Q 2597 3491 2834 3397 
z
" transform="scale(0.015625)"/>
       <path id="DejaVuSans-69" d="M 603 3500 
L 1178 3500 
L 1178 0 
L 603 0 
L 603 3500 
z
M 603 4863 
L 1178 4863 
L 1178 4134 
L 603 4134 
L 603 4863 
z
" transform="scale(0.015625)"/>
       <path id="DejaVuSans-74" d="M 1172 4494 
L 1172 3500 
L 2356 3500 
L 2356 3053 
L 1172 3053 
L 1172 1153 
Q 1172 725 1289 603 
Q 1406 481 1766 481 
L 2356 481 
L 2356 0 
L 1766 0 
Q 1100 0 847 248 
Q 594 497 594 1153 
L 594 3053 
L 172 3053 
L 172 3500 
L 594 3500 
L 594 4494 
L 1172 4494 
z
" transform="scale(0.015625)"/>
       <path id="DejaVuSans-79" d="M 2059 -325 
Q 1816 -950 1584 -1140 
Q 1353 -1331 966 -1331 
L 506 -1331 
L 506 -850 
L 844 -850 
Q 1081 -850 1212 -737 
Q 1344 -625 1503 -206 
L 1606 56 
L 191 3500 
L 800 3500 
L 1894 763 
L 2988 3500 
L 3597 3500 
L 2059 -325 
z
" transform="scale(0.015625)"/>
      </defs>
      <use xlink:href="#DejaVuSans-44"/>
      <use xlink:href="#DejaVuSans-65" x="77.001953"/>
      <use xlink:href="#DejaVuSans-6e" x="138.525391"/>
      <use xlink:href="#DejaVuSans-73" x="201.904297"/>
      <use xlink:href="#DejaVuSans-69" x="254.003906"/>
      <use xlink:href="#DejaVuSans-74" x="281.787109"/>
      <use xlink:href="#DejaVuSans-79" x="320.996094"/>
     </g>
    </g>
   </g>
   <g id="line2d_14">
    <path d="M 73.832727 299.455534 
L 75.464157 297.457009 
L 77.095587 295.138919 
L 78.727017 292.503731 
L 80.358447 289.56875 
L 83.621307 282.944092 
L 88.515596 271.981305 
L 91.778456 264.793117 
L 95.041316 258.296681 
L 96.672746 255.423697 
L 98.304175 252.838743 
L 99.935605 250.554252 
L 101.567035 248.569867 
L 103.198465 246.872756 
L 104.829895 245.438201 
L 106.461325 244.230582 
L 109.724185 242.308946 
L 116.249904 238.89784 
L 117.881334 237.83535 
L 119.512764 236.616526 
L 121.144194 235.225013 
L 122.775624 233.656222 
L 126.038483 230.016178 
L 129.301343 225.806345 
L 132.564203 221.132797 
L 135.827063 215.989162 
L 139.089922 210.211037 
L 140.721352 206.999921 
L 142.352782 203.526177 
L 143.984212 199.760616 
L 145.615642 195.68524 
L 148.878502 186.609673 
L 152.141361 176.480043 
L 160.298511 149.806765 
L 161.929941 144.921561 
L 163.56137 140.414062 
L 165.1928 136.388216 
L 166.82423 132.946342 
L 168.45566 130.183526 
L 170.08709 128.180188 
L 171.71852 126.993663 
L 173.34995 126.650111 
L 174.98138 127.138277 
L 176.61281 128.406508 
L 178.244239 130.363936 
L 179.875669 132.88606 
L 181.507099 135.824158 
L 188.032819 148.602147 
L 189.664249 151.393389 
L 191.295678 153.855128 
L 192.927108 155.960099 
L 194.558538 157.710562 
L 196.189968 159.132524 
L 197.821398 160.268453 
L 199.452828 161.169309 
L 201.084258 161.886561 
L 204.347117 162.935426 
L 207.609977 163.5871 
L 209.241407 163.732505 
L 210.872837 163.700639 
L 212.504267 163.429585 
L 214.135697 162.850104 
L 215.767127 161.8946 
L 217.398556 160.50708 
L 219.029986 158.652997 
L 220.661416 156.327664 
L 222.292846 153.561984 
L 223.924276 150.424459 
L 232.081425 133.572048 
L 233.712855 131.000658 
L 235.344285 128.992287 
L 236.975715 127.622117 
L 238.607145 126.934298 
L 240.238575 126.945884 
L 241.870005 127.65354 
L 243.501434 129.041427 
L 245.132864 131.088546 
L 246.764294 133.77409 
L 248.395724 137.079893 
L 250.027154 140.989728 
L 251.658584 145.485904 
L 253.290014 150.544142 
L 254.921444 156.128023 
L 258.184303 168.640527 
L 261.447163 182.368743 
L 266.341453 203.26843 
L 269.604312 216.110649 
L 271.235742 221.966088 
L 272.867172 227.396652 
L 274.498602 232.399501 
L 276.130032 236.994416 
L 277.761462 241.218244 
L 281.024322 248.744857 
L 284.287181 255.360965 
L 287.550041 261.333741 
L 290.812901 266.73957 
L 294.075761 271.488908 
L 295.70719 273.56418 
L 297.33862 275.409431 
L 298.97005 277.005179 
L 300.60148 278.337215 
L 302.23291 279.398466 
L 303.86434 280.190691 
L 305.49577 280.726016 
L 307.1272 281.028166 
L 308.75863 281.133121 
L 312.021489 280.953461 
L 315.284349 280.673456 
L 316.915779 280.660655 
L 318.547209 280.80811 
L 320.178639 281.153727 
L 321.810069 281.714523 
L 323.441498 282.484173 
L 325.072928 283.43342 
L 328.335788 285.662146 
L 331.598648 287.897272 
L 333.230078 288.865615 
L 334.861508 289.680851 
L 336.492937 290.328719 
L 338.124367 290.817395 
L 341.387227 291.446921 
L 344.650087 291.946418 
L 347.912947 292.72665 
L 349.544376 293.309656 
L 351.175806 294.036331 
L 354.438666 295.86445 
L 360.964386 299.990222 
L 362.595815 300.863196 
L 364.227245 301.600883 
L 365.858675 302.183993 
L 367.490105 302.605009 
L 369.121535 302.868048 
L 370.752965 302.987818 
L 374.015825 302.898108 
L 382.172974 302.256834 
L 385.435834 302.377913 
L 388.698693 302.8126 
L 391.961553 303.481614 
L 398.487273 305.026822 
L 398.487273 305.026822 
" clip-path="url(#p3347702acb)" style="fill: none; stroke: #0000ff; stroke-width: 1.5; stroke-linecap: square"/>
   </g>
   <g id="patch_36">
    <path d="M 57.6 307.584 
L 57.6 41.472 
" style="fill: none; stroke: #000000; stroke-width: 0.8; stroke-linejoin: miter; stroke-linecap: square"/>
   </g>
   <g id="patch_37">
    <path d="M 414.72 307.584 
L 414.72 41.472 
" style="fill: none; stroke: #000000; stroke-width: 0.8; stroke-linejoin: miter; stroke-linecap: square"/>
   </g>
   <g id="patch_38">
    <path d="M 57.6 307.584 
L 414.72 307.584 
" style="fill: none; stroke: #000000; stroke-width: 0.8; stroke-linejoin: miter; stroke-linecap: square"/>
   </g>
   <g id="patch_39">
    <path d="M 57.6 41.472 
L 414.72 41.472 
" style="fill: none; stroke: #000000; stroke-width: 0.8; stroke-linejoin: miter; stroke-linecap: square"/>
   </g>
  </g>
 </g>
 <defs>
  <clipPath id="p3347702acb">
   <rect x="57.6" y="41.472" width="357.12" height="266.112"/>
  </clipPath>
 </defs>
</svg>
