<?xml version="1.0" encoding="utf-8" standalone="no"?>
<!DOCTYPE svg PUBLIC "-//W3C//DTD SVG 1.1//EN"
  "http://www.w3.org/Graphics/SVG/1.1/DTD/svg11.dtd">
<svg xmlns:xlink="http://www.w3.org/1999/xlink" width="460.8pt" height="345.6pt" viewBox="0 0 460.8 345.6" xmlns="http://www.w3.org/2000/svg" version="1.1">
 <metadata>
  <rdf:RDF xmlns:dc="http://purl.org/dc/elements/1.1/" xmlns:cc="http://creativecommons.org/ns#" xmlns:rdf="http://www.w3.org/1999/02/22-rdf-syntax-ns#">
   <cc:Work>
    <dc:type rdf:resource="http://purl.org/dc/dcmitype/StillImage"/>
    <dc:date>2024-11-05T16:23:09.995236</dc:date>
    <dc:format>image/svg+xml</dc:format>
    <dc:creator>
     <cc:Agent>
      <dc:title>Matplotlib v3.8.4, https://matplotlib.org/</dc:title>
     </cc:Agent>
    </dc:creator>
   </cc:Work>
  </rdf:RDF>
 </metadata>
 <defs>
  <style type="text/css">*{stroke-linejoin: round; stroke-linecap: butt}</style>
 </defs>
 <g id="figure_1">
  <g id="patch_1">
   <path d="M 0 345.6 
L 460.8 345.6 
L 460.8 0 
L 0 0 
z
" style="fill: #ffffff"/>
  </g>
  <g id="axes_1">
   <g id="patch_2">
    <path d="M 57.6 307.584 
L 414.72 307.584 
L 414.72 41.472 
L 57.6 41.472 
z
" style="fill: #ffffff"/>
   </g>
   <g id="patch_3">
    <path d="M 73.832727 307.584 
L 81.382833 307.584 
L 81.382833 250.050207 
L 73.832727 250.050207 
z
" clip-path="url(#p22171d1f52)" style="fill: #0000ff; fill-opacity: 0.5"/>
   </g>
   <g id="patch_4">
    <path d="M 81.382833 307.584 
L 88.932939 307.584 
L 88.932939 296.659862 
L 81.382833 296.659862 
z
" clip-path="url(#p22171d1f52)" style="fill: #0000ff; fill-opacity: 0.5"/>
   </g>
   <g id="patch_5">
    <path d="M 88.932939 307.584 
L 96.483044 307.584 
L 96.483044 172.852966 
L 88.932939 172.852966 
z
" clip-path="url(#p22171d1f52)" style="fill: #0000ff; fill-opacity: 0.5"/>
   </g>
   <g id="patch_6">
    <path d="M 96.483044 307.584 
L 104.03315 307.584 
L 104.03315 154.646069 
L 96.483044 154.646069 
z
" clip-path="url(#p22171d1f52)" style="fill: #0000ff; fill-opacity: 0.5"/>
   </g>
   <g id="patch_7">
    <path d="M 104.03315 307.584 
L 111.583256 307.584 
L 111.583256 178.679172 
L 104.03315 178.679172 
z
" clip-path="url(#p22171d1f52)" style="fill: #0000ff; fill-opacity: 0.5"/>
   </g>
   <g id="patch_8">
    <path d="M 111.583256 307.584 
L 119.133362 307.584 
L 119.133362 190.331586 
L 111.583256 190.331586 
z
" clip-path="url(#p22171d1f52)" style="fill: #0000ff; fill-opacity: 0.5"/>
   </g>
   <g id="patch_9">
    <path d="M 119.133362 307.584 
L 126.683467 307.584 
L 126.683467 151.00469 
L 119.133362 151.00469 
z
" clip-path="url(#p22171d1f52)" style="fill: #0000ff; fill-opacity: 0.5"/>
   </g>
   <g id="patch_10">
    <path d="M 126.683467 307.584 
L 134.233573 307.584 
L 134.233573 185.961931 
L 126.683467 185.961931 
z
" clip-path="url(#p22171d1f52)" style="fill: #0000ff; fill-opacity: 0.5"/>
   </g>
   <g id="patch_11">
    <path d="M 134.233573 307.584 
L 141.783679 307.584 
L 141.783679 137.895724 
L 134.233573 137.895724 
z
" clip-path="url(#p22171d1f52)" style="fill: #0000ff; fill-opacity: 0.5"/>
   </g>
   <g id="patch_12">
    <path d="M 141.783679 307.584 
L 149.333784 307.584 
L 149.333784 100.753655 
L 141.783679 100.753655 
z
" clip-path="url(#p22171d1f52)" style="fill: #0000ff; fill-opacity: 0.5"/>
   </g>
   <g id="patch_13">
    <path d="M 149.333784 307.584 
L 156.88389 307.584 
L 156.88389 206.353655 
L 149.333784 206.353655 
z
" clip-path="url(#p22171d1f52)" style="fill: #0000ff; fill-opacity: 0.5"/>
   </g>
   <g id="patch_14">
    <path d="M 156.88389 307.584 
L 164.433996 307.584 
L 164.433996 74.535724 
L 156.88389 74.535724 
z
" clip-path="url(#p22171d1f52)" style="fill: #0000ff; fill-opacity: 0.5"/>
   </g>
   <g id="patch_15">
    <path d="M 164.433996 307.584 
L 171.984101 307.584 
L 171.984101 54.144 
L 164.433996 54.144 
z
" clip-path="url(#p22171d1f52)" style="fill: #0000ff; fill-opacity: 0.5"/>
   </g>
   <g id="patch_16">
    <path d="M 171.984101 307.584 
L 179.534207 307.584 
L 179.534207 67.252966 
L 171.984101 67.252966 
z
" clip-path="url(#p22171d1f52)" style="fill: #0000ff; fill-opacity: 0.5"/>
   </g>
   <g id="patch_17">
    <path d="M 179.534207 307.584 
L 187.084313 307.584 
L 187.084313 134.982621 
L 179.534207 134.982621 
z
" clip-path="url(#p22171d1f52)" style="fill: #0000ff; fill-opacity: 0.5"/>
   </g>
   <g id="patch_18">
    <path d="M 187.084313 307.584 
L 194.634419 307.584 
L 194.634419 98.568828 
L 187.084313 98.568828 
z
" clip-path="url(#p22171d1f52)" style="fill: #0000ff; fill-opacity: 0.5"/>
   </g>
   <g id="patch_19">
    <path d="M 194.634419 307.584 
L 202.184524 307.584 
L 202.184524 112.406069 
L 194.634419 112.406069 
z
" clip-path="url(#p22171d1f52)" style="fill: #0000ff; fill-opacity: 0.5"/>
   </g>
   <g id="patch_20">
    <path d="M 202.184524 307.584 
L 209.73463 307.584 
L 209.73463 156.102621 
L 202.184524 156.102621 
z
" clip-path="url(#p22171d1f52)" style="fill: #0000ff; fill-opacity: 0.5"/>
   </g>
   <g id="patch_21">
    <path d="M 209.73463 307.584 
L 217.284736 307.584 
L 217.284736 164.841931 
L 209.73463 164.841931 
z
" clip-path="url(#p22171d1f52)" style="fill: #0000ff; fill-opacity: 0.5"/>
   </g>
   <g id="patch_22">
    <path d="M 217.284736 307.584 
L 224.834841 307.584 
L 224.834841 263.159172 
L 217.284736 263.159172 
z
" clip-path="url(#p22171d1f52)" style="fill: #0000ff; fill-opacity: 0.5"/>
   </g>
   <g id="patch_23">
    <path d="M 224.834841 307.584 
L 232.384947 307.584 
L 232.384947 258.061241 
L 224.834841 258.061241 
z
" clip-path="url(#p22171d1f52)" style="fill: #0000ff; fill-opacity: 0.5"/>
   </g>
   <g id="patch_24">
    <path d="M 232.384947 307.584 
L 239.935053 307.584 
L 239.935053 268.985379 
L 232.384947 268.985379 
z
" clip-path="url(#p22171d1f52)" style="fill: #0000ff; fill-opacity: 0.5"/>
   </g>
   <g id="patch_25">
    <path d="M 239.935053 307.584 
L 247.485159 307.584 
L 247.485159 290.105379 
L 239.935053 290.105379 
z
" clip-path="url(#p22171d1f52)" style="fill: #0000ff; fill-opacity: 0.5"/>
   </g>
   <g id="patch_26">
    <path d="M 247.485159 307.584 
L 255.035264 307.584 
L 255.035264 268.985379 
L 247.485159 268.985379 
z
" clip-path="url(#p22171d1f52)" style="fill: #0000ff; fill-opacity: 0.5"/>
   </g>
   <g id="patch_27">
    <path d="M 255.035264 307.584 
L 262.58537 307.584 
L 262.58537 295.20331 
L 255.035264 295.20331 
z
" clip-path="url(#p22171d1f52)" style="fill: #0000ff; fill-opacity: 0.5"/>
   </g>
   <g id="patch_28">
    <path d="M 262.58537 307.584 
L 270.135476 307.584 
L 270.135476 303.214345 
L 262.58537 303.214345 
z
" clip-path="url(#p22171d1f52)" style="fill: #0000ff; fill-opacity: 0.5"/>
   </g>
   <g id="patch_29">
    <path d="M 270.135476 307.584 
L 277.685581 307.584 
L 277.685581 301.757793 
L 270.135476 301.757793 
z
" clip-path="url(#p22171d1f52)" style="fill: #0000ff; fill-opacity: 0.5"/>
   </g>
   <g id="patch_30">
    <path d="M 277.685581 307.584 
L 285.235687 307.584 
L 285.235687 303.942621 
L 277.685581 303.942621 
z
" clip-path="url(#p22171d1f52)" style="fill: #0000ff; fill-opacity: 0.5"/>
   </g>
   <g id="patch_31">
    <path d="M 285.235687 307.584 
L 292.785793 307.584 
L 292.785793 291.561931 
L 285.235687 291.561931 
z
" clip-path="url(#p22171d1f52)" style="fill: #0000ff; fill-opacity: 0.5"/>
   </g>
   <g id="patch_32">
    <path d="M 292.785793 307.584 
L 300.335899 307.584 
L 300.335899 306.127448 
L 292.785793 306.127448 
z
" clip-path="url(#p22171d1f52)" style="fill: #0000ff; fill-opacity: 0.5"/>
   </g>
   <g id="patch_33">
    <path d="M 300.335899 307.584 
L 307.886004 307.584 
L 307.886004 304.670897 
L 300.335899 304.670897 
z
" clip-path="url(#p22171d1f52)" style="fill: #0000ff; fill-opacity: 0.5"/>
   </g>
   <g id="patch_34">
    <path d="M 307.886004 307.584 
L 315.43611 307.584 
L 315.43611 300.301241 
L 307.886004 300.301241 
z
" clip-path="url(#p22171d1f52)" style="fill: #0000ff; fill-opacity: 0.5"/>
   </g>
   <g id="patch_35">
    <path d="M 315.43611 307.584 
L 322.986216 307.584 
L 322.986216 306.127448 
L 315.43611 306.127448 
z
" clip-path="url(#p22171d1f52)" style="fill: #0000ff; fill-opacity: 0.5"/>
   </g>
   <g id="patch_36">
    <path d="M 322.986216 307.584 
L 330.536321 307.584 
L 330.536321 307.584 
L 322.986216 307.584 
z
" clip-path="url(#p22171d1f52)" style="fill: #0000ff; fill-opacity: 0.5"/>
   </g>
   <g id="patch_37">
    <path d="M 330.536321 307.584 
L 338.086427 307.584 
L 338.086427 306.127448 
L 330.536321 306.127448 
z
" clip-path="url(#p22171d1f52)" style="fill: #0000ff; fill-opacity: 0.5"/>
   </g>
   <g id="patch_38">
    <path d="M 338.086427 307.584 
L 345.636533 307.584 
L 345.636533 305.399172 
L 338.086427 305.399172 
z
" clip-path="url(#p22171d1f52)" style="fill: #0000ff; fill-opacity: 0.5"/>
   </g>
   <g id="patch_39">
    <path d="M 345.636533 307.584 
L 353.186638 307.584 
L 353.186638 307.584 
L 345.636533 307.584 
z
" clip-path="url(#p22171d1f52)" style="fill: #0000ff; fill-opacity: 0.5"/>
   </g>
   <g id="patch_40">
    <path d="M 353.186638 307.584 
L 360.736744 307.584 
L 360.736744 307.584 
L 353.186638 307.584 
z
" clip-path="url(#p22171d1f52)" style="fill: #0000ff; fill-opacity: 0.5"/>
   </g>
   <g id="patch_41">
    <path d="M 360.736744 307.584 
L 368.28685 307.584 
L 368.28685 302.486069 
L 360.736744 302.486069 
z
" clip-path="url(#p22171d1f52)" style="fill: #0000ff; fill-opacity: 0.5"/>
   </g>
   <g id="patch_42">
    <path d="M 368.28685 307.584 
L 375.836956 307.584 
L 375.836956 307.584 
L 368.28685 307.584 
z
" clip-path="url(#p22171d1f52)" style="fill: #0000ff; fill-opacity: 0.5"/>
   </g>
   <g id="patch_43">
    <path d="M 375.836956 307.584 
L 383.387061 307.584 
L 383.387061 307.584 
L 375.836956 307.584 
z
" clip-path="url(#p22171d1f52)" style="fill: #0000ff; fill-opacity: 0.5"/>
   </g>
   <g id="patch_44">
    <path d="M 383.387061 307.584 
L 390.937167 307.584 
L 390.937167 306.127448 
L 383.387061 306.127448 
z
" clip-path="url(#p22171d1f52)" style="fill: #0000ff; fill-opacity: 0.5"/>
   </g>
   <g id="patch_45">
    <path d="M 390.937167 307.584 
L 398.487273 307.584 
L 398.487273 304.670897 
L 390.937167 304.670897 
z
" clip-path="url(#p22171d1f52)" style="fill: #0000ff; fill-opacity: 0.5"/>
   </g>
   <g id="matplotlib.axis_1">
    <g id="xtick_1">
     <g id="line2d_1">
      <defs>
       <path id="m88b3868234" d="M 0 0 
L 0 3.5 
" style="stroke: #000000; stroke-width: 0.8"/>
      </defs>
      <g>
       <use xlink:href="#m88b3868234" x="117.383947" y="307.584" style="stroke: #000000; stroke-width: 0.8"/>
      </g>
     </g>
     <g id="text_1">
      <!-- 0.4 -->
      <g transform="translate(109.432384 322.182437) scale(0.1 -0.1)">
       <defs>
        <path id="DejaVuSans-30" d="M 2034 4250 
Q 1547 4250 1301 3770 
Q 1056 3291 1056 2328 
Q 1056 1369 1301 889 
Q 1547 409 2034 409 
Q 2525 409 2770 889 
Q 3016 1369 3016 2328 
Q 3016 3291 2770 3770 
Q 2525 4250 2034 4250 
z
M 2034 4750 
Q 2819 4750 3233 4129 
Q 3647 3509 3647 2328 
Q 3647 1150 3233 529 
Q 2819 -91 2034 -91 
Q 1250 -91 836 529 
Q 422 1150 422 2328 
Q 422 3509 836 4129 
Q 1250 4750 2034 4750 
z
" transform="scale(0.015625)"/>
        <path id="DejaVuSans-2e" d="M 684 794 
L 1344 794 
L 1344 0 
L 684 0 
L 684 794 
z
" transform="scale(0.015625)"/>
        <path id="DejaVuSans-34" d="M 2419 4116 
L 825 1625 
L 2419 1625 
L 2419 4116 
z
M 2253 4666 
L 3047 4666 
L 3047 1625 
L 3713 1625 
L 3713 1100 
L 3047 1100 
L 3047 0 
L 2419 0 
L 2419 1100 
L 313 1100 
L 313 1709 
L 2253 4666 
z
" transform="scale(0.015625)"/>
       </defs>
       <use xlink:href="#DejaVuSans-30"/>
       <use xlink:href="#DejaVuSans-2e" x="63.623047"/>
       <use xlink:href="#DejaVuSans-34" x="95.410156"/>
      </g>
     </g>
    </g>
    <g id="xtick_2">
     <g id="line2d_2">
      <g>
       <use xlink:href="#m88b3868234" x="196.567982" y="307.584" style="stroke: #000000; stroke-width: 0.8"/>
      </g>
     </g>
     <g id="text_2">
      <!-- 0.6 -->
      <g transform="translate(188.61642 322.182437) scale(0.1 -0.1)">
       <defs>
        <path id="DejaVuSans-36" d="M 2113 2584 
Q 1688 2584 1439 2293 
Q 1191 2003 1191 1497 
Q 1191 994 1439 701 
Q 1688 409 2113 409 
Q 2538 409 2786 701 
Q 3034 994 3034 1497 
Q 3034 2003 2786 2293 
Q 2538 2584 2113 2584 
z
M 3366 4563 
L 3366 3988 
Q 3128 4100 2886 4159 
Q 2644 4219 2406 4219 
Q 1781 4219 1451 3797 
Q 1122 3375 1075 2522 
Q 1259 2794 1537 2939 
Q 1816 3084 2150 3084 
Q 2853 3084 3261 2657 
Q 3669 2231 3669 1497 
Q 3669 778 3244 343 
Q 2819 -91 2113 -91 
Q 1303 -91 875 529 
Q 447 1150 447 2328 
Q 447 3434 972 4092 
Q 1497 4750 2381 4750 
Q 2619 4750 2861 4703 
Q 3103 4656 3366 4563 
z
" transform="scale(0.015625)"/>
       </defs>
       <use xlink:href="#DejaVuSans-30"/>
       <use xlink:href="#DejaVuSans-2e" x="63.623047"/>
       <use xlink:href="#DejaVuSans-36" x="95.410156"/>
      </g>
     </g>
    </g>
    <g id="xtick_3">
     <g id="line2d_3">
      <g>
       <use xlink:href="#m88b3868234" x="275.752018" y="307.584" style="stroke: #000000; stroke-width: 0.8"/>
      </g>
     </g>
     <g id="text_3">
      <!-- 0.8 -->
      <g transform="translate(267.800455 322.182437) scale(0.1 -0.1)">
       <defs>
        <path id="DejaVuSans-38" d="M 2034 2216 
Q 1584 2216 1326 1975 
Q 1069 1734 1069 1313 
Q 1069 891 1326 650 
Q 1584 409 2034 409 
Q 2484 409 2743 651 
Q 3003 894 3003 1313 
Q 3003 1734 2745 1975 
Q 2488 2216 2034 2216 
z
M 1403 2484 
Q 997 2584 770 2862 
Q 544 3141 544 3541 
Q 544 4100 942 4425 
Q 1341 4750 2034 4750 
Q 2731 4750 3128 4425 
Q 3525 4100 3525 3541 
Q 3525 3141 3298 2862 
Q 3072 2584 2669 2484 
Q 3125 2378 3379 2068 
Q 3634 1759 3634 1313 
Q 3634 634 3220 271 
Q 2806 -91 2034 -91 
Q 1263 -91 848 271 
Q 434 634 434 1313 
Q 434 1759 690 2068 
Q 947 2378 1403 2484 
z
M 1172 3481 
Q 1172 3119 1398 2916 
Q 1625 2713 2034 2713 
Q 2441 2713 2670 2916 
Q 2900 3119 2900 3481 
Q 2900 3844 2670 4047 
Q 2441 4250 2034 4250 
Q 1625 4250 1398 4047 
Q 1172 3844 1172 3481 
z
" transform="scale(0.015625)"/>
       </defs>
       <use xlink:href="#DejaVuSans-30"/>
       <use xlink:href="#DejaVuSans-2e" x="63.623047"/>
       <use xlink:href="#DejaVuSans-38" x="95.410156"/>
      </g>
     </g>
    </g>
    <g id="xtick_4">
     <g id="line2d_4">
      <g>
       <use xlink:href="#m88b3868234" x="354.936053" y="307.584" style="stroke: #000000; stroke-width: 0.8"/>
      </g>
     </g>
     <g id="text_4">
      <!-- 1.0 -->
      <g transform="translate(346.984491 322.182437) scale(0.1 -0.1)">
       <defs>
        <path id="DejaVuSans-31" d="M 794 531 
L 1825 531 
L 1825 4091 
L 703 3866 
L 703 4441 
L 1819 4666 
L 2450 4666 
L 2450 531 
L 3481 531 
L 3481 0 
L 794 0 
L 794 531 
z
" transform="scale(0.015625)"/>
       </defs>
       <use xlink:href="#DejaVuSans-31"/>
       <use xlink:href="#DejaVuSans-2e" x="63.623047"/>
       <use xlink:href="#DejaVuSans-30" x="95.410156"/>
      </g>
     </g>
    </g>
    <g id="text_5">
     <!-- medianSP -->
     <g transform="translate(211.227969 335.860562) scale(0.1 -0.1)">
      <defs>
       <path id="DejaVuSans-6d" d="M 3328 2828 
Q 3544 3216 3844 3400 
Q 4144 3584 4550 3584 
Q 5097 3584 5394 3201 
Q 5691 2819 5691 2113 
L 5691 0 
L 5113 0 
L 5113 2094 
Q 5113 2597 4934 2840 
Q 4756 3084 4391 3084 
Q 3944 3084 3684 2787 
Q 3425 2491 3425 1978 
L 3425 0 
L 2847 0 
L 2847 2094 
Q 2847 2600 2669 2842 
Q 2491 3084 2119 3084 
Q 1678 3084 1418 2786 
Q 1159 2488 1159 1978 
L 1159 0 
L 581 0 
L 581 3500 
L 1159 3500 
L 1159 2956 
Q 1356 3278 1631 3431 
Q 1906 3584 2284 3584 
Q 2666 3584 2933 3390 
Q 3200 3197 3328 2828 
z
" transform="scale(0.015625)"/>
       <path id="DejaVuSans-65" d="M 3597 1894 
L 3597 1613 
L 953 1613 
Q 991 1019 1311 708 
Q 1631 397 2203 397 
Q 2534 397 2845 478 
Q 3156 559 3463 722 
L 3463 178 
Q 3153 47 2828 -22 
Q 2503 -91 2169 -91 
Q 1331 -91 842 396 
Q 353 884 353 1716 
Q 353 2575 817 3079 
Q 1281 3584 2069 3584 
Q 2775 3584 3186 3129 
Q 3597 2675 3597 1894 
z
M 3022 2063 
Q 3016 2534 2758 2815 
Q 2500 3097 2075 3097 
Q 1594 3097 1305 2825 
Q 1016 2553 972 2059 
L 3022 2063 
z
" transform="scale(0.015625)"/>
       <path id="DejaVuSans-64" d="M 2906 2969 
L 2906 4863 
L 3481 4863 
L 3481 0 
L 2906 0 
L 2906 525 
Q 2725 213 2448 61 
Q 2172 -91 1784 -91 
Q 1150 -91 751 415 
Q 353 922 353 1747 
Q 353 2572 751 3078 
Q 1150 3584 1784 3584 
Q 2172 3584 2448 3432 
Q 2725 3281 2906 2969 
z
M 947 1747 
Q 947 1113 1208 752 
Q 1469 391 1925 391 
Q 2381 391 2643 752 
Q 2906 1113 2906 1747 
Q 2906 2381 2643 2742 
Q 2381 3103 1925 3103 
Q 1469 3103 1208 2742 
Q 947 2381 947 1747 
z
" transform="scale(0.015625)"/>
       <path id="DejaVuSans-69" d="M 603 3500 
L 1178 3500 
L 1178 0 
L 603 0 
L 603 3500 
z
M 603 4863 
L 1178 4863 
L 1178 4134 
L 603 4134 
L 603 4863 
z
" transform="scale(0.015625)"/>
       <path id="DejaVuSans-61" d="M 2194 1759 
Q 1497 1759 1228 1600 
Q 959 1441 959 1056 
Q 959 750 1161 570 
Q 1363 391 1709 391 
Q 2188 391 2477 730 
Q 2766 1069 2766 1631 
L 2766 1759 
L 2194 1759 
z
M 3341 1997 
L 3341 0 
L 2766 0 
L 2766 531 
Q 2569 213 2275 61 
Q 1981 -91 1556 -91 
Q 1019 -91 701 211 
Q 384 513 384 1019 
Q 384 1609 779 1909 
Q 1175 2209 1959 2209 
L 2766 2209 
L 2766 2266 
Q 2766 2663 2505 2880 
Q 2244 3097 1772 3097 
Q 1472 3097 1187 3025 
Q 903 2953 641 2809 
L 641 3341 
Q 956 3463 1253 3523 
Q 1550 3584 1831 3584 
Q 2591 3584 2966 3190 
Q 3341 2797 3341 1997 
z
" transform="scale(0.015625)"/>
       <path id="DejaVuSans-6e" d="M 3513 2113 
L 3513 0 
L 2938 0 
L 2938 2094 
Q 2938 2591 2744 2837 
Q 2550 3084 2163 3084 
Q 1697 3084 1428 2787 
Q 1159 2491 1159 1978 
L 1159 0 
L 581 0 
L 581 3500 
L 1159 3500 
L 1159 2956 
Q 1366 3272 1645 3428 
Q 1925 3584 2291 3584 
Q 2894 3584 3203 3211 
Q 3513 2838 3513 2113 
z
" transform="scale(0.015625)"/>
       <path id="DejaVuSans-53" d="M 3425 4513 
L 3425 3897 
Q 3066 4069 2747 4153 
Q 2428 4238 2131 4238 
Q 1616 4238 1336 4038 
Q 1056 3838 1056 3469 
Q 1056 3159 1242 3001 
Q 1428 2844 1947 2747 
L 2328 2669 
Q 3034 2534 3370 2195 
Q 3706 1856 3706 1288 
Q 3706 609 3251 259 
Q 2797 -91 1919 -91 
Q 1588 -91 1214 -16 
Q 841 59 441 206 
L 441 856 
Q 825 641 1194 531 
Q 1563 422 1919 422 
Q 2459 422 2753 634 
Q 3047 847 3047 1241 
Q 3047 1584 2836 1778 
Q 2625 1972 2144 2069 
L 1759 2144 
Q 1053 2284 737 2584 
Q 422 2884 422 3419 
Q 422 4038 858 4394 
Q 1294 4750 2059 4750 
Q 2388 4750 2728 4690 
Q 3069 4631 3425 4513 
z
" transform="scale(0.015625)"/>
       <path id="DejaVuSans-50" d="M 1259 4147 
L 1259 2394 
L 2053 2394 
Q 2494 2394 2734 2622 
Q 2975 2850 2975 3272 
Q 2975 3691 2734 3919 
Q 2494 4147 2053 4147 
L 1259 4147 
z
M 628 4666 
L 2053 4666 
Q 2838 4666 3239 4311 
Q 3641 3956 3641 3272 
Q 3641 2581 3239 2228 
Q 2838 1875 2053 1875 
L 1259 1875 
L 1259 0 
L 628 0 
L 628 4666 
z
" transform="scale(0.015625)"/>
      </defs>
      <use xlink:href="#DejaVuSans-6d"/>
      <use xlink:href="#DejaVuSans-65" x="97.412109"/>
      <use xlink:href="#DejaVuSans-64" x="158.935547"/>
      <use xlink:href="#DejaVuSans-69" x="222.412109"/>
      <use xlink:href="#DejaVuSans-61" x="250.195312"/>
      <use xlink:href="#DejaVuSans-6e" x="311.474609"/>
      <use xlink:href="#DejaVuSans-53" x="374.853516"/>
      <use xlink:href="#DejaVuSans-50" x="438.330078"/>
     </g>
    </g>
   </g>
   <g id="matplotlib.axis_2">
    <g id="ytick_1">
     <g id="line2d_5">
      <defs>
       <path id="m05139701b2" d="M 0 0 
L -3.5 0 
" style="stroke: #000000; stroke-width: 0.8"/>
      </defs>
      <g>
       <use xlink:href="#m05139701b2" x="57.6" y="307.584" style="stroke: #000000; stroke-width: 0.8"/>
      </g>
     </g>
     <g id="text_6">
      <!-- 0.0 -->
      <g transform="translate(34.696875 311.383219) scale(0.1 -0.1)">
       <use xlink:href="#DejaVuSans-30"/>
       <use xlink:href="#DejaVuSans-2e" x="63.623047"/>
       <use xlink:href="#DejaVuSans-30" x="95.410156"/>
      </g>
     </g>
    </g>
    <g id="ytick_2">
     <g id="line2d_6">
      <g>
       <use xlink:href="#m05139701b2" x="57.6" y="276.946959" style="stroke: #000000; stroke-width: 0.8"/>
      </g>
     </g>
     <g id="text_7">
      <!-- 0.5 -->
      <g transform="translate(34.696875 280.746178) scale(0.1 -0.1)">
       <defs>
        <path id="DejaVuSans-35" d="M 691 4666 
L 3169 4666 
L 3169 4134 
L 1269 4134 
L 1269 2991 
Q 1406 3038 1543 3061 
Q 1681 3084 1819 3084 
Q 2600 3084 3056 2656 
Q 3513 2228 3513 1497 
Q 3513 744 3044 326 
Q 2575 -91 1722 -91 
Q 1428 -91 1123 -41 
Q 819 9 494 109 
L 494 744 
Q 775 591 1075 516 
Q 1375 441 1709 441 
Q 2250 441 2565 725 
Q 2881 1009 2881 1497 
Q 2881 1984 2565 2268 
Q 2250 2553 1709 2553 
Q 1456 2553 1204 2497 
Q 953 2441 691 2322 
L 691 4666 
z
" transform="scale(0.015625)"/>
       </defs>
       <use xlink:href="#DejaVuSans-30"/>
       <use xlink:href="#DejaVuSans-2e" x="63.623047"/>
       <use xlink:href="#DejaVuSans-35" x="95.410156"/>
      </g>
     </g>
    </g>
    <g id="ytick_3">
     <g id="line2d_7">
      <g>
       <use xlink:href="#m05139701b2" x="57.6" y="246.309918" style="stroke: #000000; stroke-width: 0.8"/>
      </g>
     </g>
     <g id="text_8">
      <!-- 1.0 -->
      <g transform="translate(34.696875 250.109136) scale(0.1 -0.1)">
       <use xlink:href="#DejaVuSans-31"/>
       <use xlink:href="#DejaVuSans-2e" x="63.623047"/>
       <use xlink:href="#DejaVuSans-30" x="95.410156"/>
      </g>
     </g>
    </g>
    <g id="ytick_4">
     <g id="line2d_8">
      <g>
       <use xlink:href="#m05139701b2" x="57.6" y="215.672876" style="stroke: #000000; stroke-width: 0.8"/>
      </g>
     </g>
     <g id="text_9">
      <!-- 1.5 -->
      <g transform="translate(34.696875 219.472095) scale(0.1 -0.1)">
       <use xlink:href="#DejaVuSans-31"/>
       <use xlink:href="#DejaVuSans-2e" x="63.623047"/>
       <use xlink:href="#DejaVuSans-35" x="95.410156"/>
      </g>
     </g>
    </g>
    <g id="ytick_5">
     <g id="line2d_9">
      <g>
       <use xlink:href="#m05139701b2" x="57.6" y="185.035835" style="stroke: #000000; stroke-width: 0.8"/>
      </g>
     </g>
     <g id="text_10">
      <!-- 2.0 -->
      <g transform="translate(34.696875 188.835054) scale(0.1 -0.1)">
       <defs>
        <path id="DejaVuSans-32" d="M 1228 531 
L 3431 531 
L 3431 0 
L 469 0 
L 469 531 
Q 828 903 1448 1529 
Q 2069 2156 2228 2338 
Q 2531 2678 2651 2914 
Q 2772 3150 2772 3378 
Q 2772 3750 2511 3984 
Q 2250 4219 1831 4219 
Q 1534 4219 1204 4116 
Q 875 4013 500 3803 
L 500 4441 
Q 881 4594 1212 4672 
Q 1544 4750 1819 4750 
Q 2544 4750 2975 4387 
Q 3406 4025 3406 3419 
Q 3406 3131 3298 2873 
Q 3191 2616 2906 2266 
Q 2828 2175 2409 1742 
Q 1991 1309 1228 531 
z
" transform="scale(0.015625)"/>
       </defs>
       <use xlink:href="#DejaVuSans-32"/>
       <use xlink:href="#DejaVuSans-2e" x="63.623047"/>
       <use xlink:href="#DejaVuSans-30" x="95.410156"/>
      </g>
     </g>
    </g>
    <g id="ytick_6">
     <g id="line2d_10">
      <g>
       <use xlink:href="#m05139701b2" x="57.6" y="154.398794" style="stroke: #000000; stroke-width: 0.8"/>
      </g>
     </g>
     <g id="text_11">
      <!-- 2.5 -->
      <g transform="translate(34.696875 158.198013) scale(0.1 -0.1)">
       <use xlink:href="#DejaVuSans-32"/>
       <use xlink:href="#DejaVuSans-2e" x="63.623047"/>
       <use xlink:href="#DejaVuSans-35" x="95.410156"/>
      </g>
     </g>
    </g>
    <g id="ytick_7">
     <g id="line2d_11">
      <g>
       <use xlink:href="#m05139701b2" x="57.6" y="123.761753" style="stroke: #000000; stroke-width: 0.8"/>
      </g>
     </g>
     <g id="text_12">
      <!-- 3.0 -->
      <g transform="translate(34.696875 127.560971) scale(0.1 -0.1)">
       <defs>
        <path id="DejaVuSans-33" d="M 2597 2516 
Q 3050 2419 3304 2112 
Q 3559 1806 3559 1356 
Q 3559 666 3084 287 
Q 2609 -91 1734 -91 
Q 1441 -91 1130 -33 
Q 819 25 488 141 
L 488 750 
Q 750 597 1062 519 
Q 1375 441 1716 441 
Q 2309 441 2620 675 
Q 2931 909 2931 1356 
Q 2931 1769 2642 2001 
Q 2353 2234 1838 2234 
L 1294 2234 
L 1294 2753 
L 1863 2753 
Q 2328 2753 2575 2939 
Q 2822 3125 2822 3475 
Q 2822 3834 2567 4026 
Q 2313 4219 1838 4219 
Q 1578 4219 1281 4162 
Q 984 4106 628 3988 
L 628 4550 
Q 988 4650 1302 4700 
Q 1616 4750 1894 4750 
Q 2613 4750 3031 4423 
Q 3450 4097 3450 3541 
Q 3450 3153 3228 2886 
Q 3006 2619 2597 2516 
z
" transform="scale(0.015625)"/>
       </defs>
       <use xlink:href="#DejaVuSans-33"/>
       <use xlink:href="#DejaVuSans-2e" x="63.623047"/>
       <use xlink:href="#DejaVuSans-30" x="95.410156"/>
      </g>
     </g>
    </g>
    <g id="ytick_8">
     <g id="line2d_12">
      <g>
       <use xlink:href="#m05139701b2" x="57.6" y="93.124711" style="stroke: #000000; stroke-width: 0.8"/>
      </g>
     </g>
     <g id="text_13">
      <!-- 3.5 -->
      <g transform="translate(34.696875 96.92393) scale(0.1 -0.1)">
       <use xlink:href="#DejaVuSans-33"/>
       <use xlink:href="#DejaVuSans-2e" x="63.623047"/>
       <use xlink:href="#DejaVuSans-35" x="95.410156"/>
      </g>
     </g>
    </g>
    <g id="ytick_9">
     <g id="line2d_13">
      <g>
       <use xlink:href="#m05139701b2" x="57.6" y="62.48767" style="stroke: #000000; stroke-width: 0.8"/>
      </g>
     </g>
     <g id="text_14">
      <!-- 4.0 -->
      <g transform="translate(34.696875 66.286889) scale(0.1 -0.1)">
       <use xlink:href="#DejaVuSans-34"/>
       <use xlink:href="#DejaVuSans-2e" x="63.623047"/>
       <use xlink:href="#DejaVuSans-30" x="95.410156"/>
      </g>
     </g>
    </g>
    <g id="text_15">
     <!-- Density -->
     <g transform="translate(28.617187 193.536594) rotate(-90) scale(0.1 -0.1)">
      <defs>
       <path id="DejaVuSans-44" d="M 1259 4147 
L 1259 519 
L 2022 519 
Q 2988 519 3436 956 
Q 3884 1394 3884 2338 
Q 3884 3275 3436 3711 
Q 2988 4147 2022 4147 
L 1259 4147 
z
M 628 4666 
L 1925 4666 
Q 3281 4666 3915 4102 
Q 4550 3538 4550 2338 
Q 4550 1131 3912 565 
Q 3275 0 1925 0 
L 628 0 
L 628 4666 
z
" transform="scale(0.015625)"/>
       <path id="DejaVuSans-73" d="M 2834 3397 
L 2834 2853 
Q 2591 2978 2328 3040 
Q 2066 3103 1784 3103 
Q 1356 3103 1142 2972 
Q 928 2841 928 2578 
Q 928 2378 1081 2264 
Q 1234 2150 1697 2047 
L 1894 2003 
Q 2506 1872 2764 1633 
Q 3022 1394 3022 966 
Q 3022 478 2636 193 
Q 2250 -91 1575 -91 
Q 1294 -91 989 -36 
Q 684 19 347 128 
L 347 722 
Q 666 556 975 473 
Q 1284 391 1588 391 
Q 1994 391 2212 530 
Q 2431 669 2431 922 
Q 2431 1156 2273 1281 
Q 2116 1406 1581 1522 
L 1381 1569 
Q 847 1681 609 1914 
Q 372 2147 372 2553 
Q 372 3047 722 3315 
Q 1072 3584 1716 3584 
Q 2034 3584 2315 3537 
Q 2597 3491 2834 3397 
z
" transform="scale(0.015625)"/>
       <path id="DejaVuSans-74" d="M 1172 4494 
L 1172 3500 
L 2356 3500 
L 2356 3053 
L 1172 3053 
L 1172 1153 
Q 1172 725 1289 603 
Q 1406 481 1766 481 
L 2356 481 
L 2356 0 
L 1766 0 
Q 1100 0 847 248 
Q 594 497 594 1153 
L 594 3053 
L 172 3053 
L 172 3500 
L 594 3500 
L 594 4494 
L 1172 4494 
z
" transform="scale(0.015625)"/>
       <path id="DejaVuSans-79" d="M 2059 -325 
Q 1816 -950 1584 -1140 
Q 1353 -1331 966 -1331 
L 506 -1331 
L 506 -850 
L 844 -850 
Q 1081 -850 1212 -737 
Q 1344 -625 1503 -206 
L 1606 56 
L 191 3500 
L 800 3500 
L 1894 763 
L 2988 3500 
L 3597 3500 
L 2059 -325 
z
" transform="scale(0.015625)"/>
      </defs>
      <use xlink:href="#DejaVuSans-44"/>
      <use xlink:href="#DejaVuSans-65" x="77.001953"/>
      <use xlink:href="#DejaVuSans-6e" x="138.525391"/>
      <use xlink:href="#DejaVuSans-73" x="201.904297"/>
      <use xlink:href="#DejaVuSans-69" x="254.003906"/>
      <use xlink:href="#DejaVuSans-74" x="281.787109"/>
      <use xlink:href="#DejaVuSans-79" x="320.996094"/>
     </g>
    </g>
   </g>
   <g id="line2d_14">
    <path d="M 73.832727 279.040262 
L 77.095587 272.91576 
L 78.727017 269.354932 
L 80.358447 265.20226 
L 81.989877 260.30789 
L 83.621307 254.601858 
L 85.252736 248.113324 
L 88.515596 233.376826 
L 93.409886 210.481924 
L 95.041316 203.630431 
L 96.672746 197.487344 
L 98.304175 192.169291 
L 99.935605 187.739177 
L 101.567035 184.204914 
L 103.198465 181.519 
L 104.829895 179.581308 
L 106.461325 178.248036 
L 108.092755 177.348277 
L 111.355614 176.1696 
L 114.618474 175.010374 
L 126.038483 170.123665 
L 127.669913 169.21247 
L 129.301343 167.997457 
L 130.932773 166.36124 
L 132.564203 164.202554 
L 134.195633 161.443174 
L 135.827063 158.030427 
L 137.458492 153.938506 
L 139.089922 149.171787 
L 140.721352 143.771506 
L 143.984212 131.468316 
L 148.878502 112.013454 
L 150.509931 106.187179 
L 152.141361 101.035668 
L 153.772791 96.679765 
L 155.404221 93.162014 
L 157.035651 90.451828 
L 158.667081 88.465028 
L 160.298511 87.09238 
L 161.929941 86.229613 
L 163.56137 85.801335 
L 165.1928 85.773295 
L 166.82423 86.150778 
L 168.45566 86.964551 
L 170.08709 88.248854 
L 171.71852 90.017674 
L 173.34995 92.245681 
L 174.98138 94.858932 
L 181.507099 106.48177 
L 183.138529 109.021752 
L 184.769959 111.297797 
L 191.295678 119.658172 
L 192.927108 122.286119 
L 194.558538 125.3581 
L 196.189968 128.897908 
L 197.821398 132.874008 
L 201.084258 141.864516 
L 204.347117 151.912801 
L 205.978547 157.372956 
L 207.609977 163.237444 
L 209.241407 169.612982 
L 210.872837 176.579806 
L 212.504267 184.155588 
L 215.767127 200.766263 
L 219.029986 217.903684 
L 220.661416 225.985724 
L 222.292846 233.409921 
L 223.924276 240.009479 
L 225.555706 245.707566 
L 227.187136 250.517079 
L 228.818566 254.525379 
L 230.449995 257.868985 
L 232.081425 260.704576 
L 233.712855 263.182443 
L 236.975715 267.527662 
L 240.238575 271.484671 
L 245.132864 277.056281 
L 250.027154 282.626125 
L 254.921444 288.701981 
L 258.184303 292.756173 
L 259.815733 294.614523 
L 261.447163 296.283064 
L 263.078593 297.721045 
L 264.710023 298.907152 
L 266.341453 299.839127 
L 267.972883 300.529771 
L 269.604312 301.001077 
L 271.235742 301.278548 
L 272.867172 301.387434 
L 274.498602 301.351817 
L 277.761462 300.949532 
L 282.655751 300.050912 
L 284.287181 299.85574 
L 285.918611 299.787 
L 287.550041 299.871181 
L 289.181471 300.113765 
L 292.444331 300.982728 
L 297.33862 302.51349 
L 298.97005 302.882692 
L 300.60148 303.134316 
L 303.86434 303.312351 
L 310.390059 303.295083 
L 313.652919 303.625138 
L 316.915779 304.244851 
L 323.441498 305.608553 
L 326.704358 306.008283 
L 329.967218 306.177081 
L 343.018657 306.494976 
L 347.912947 306.645845 
L 351.175806 306.56008 
L 356.070096 306.149988 
L 360.964386 305.76797 
L 364.227245 305.762349 
L 367.490105 305.995787 
L 377.278684 306.976324 
L 380.541544 307.025146 
L 385.435834 306.790228 
L 393.592983 306.208145 
L 396.855843 306.160698 
L 398.487273 306.201433 
L 398.487273 306.201433 
" clip-path="url(#p22171d1f52)" style="fill: none; stroke: #0000ff; stroke-width: 1.5; stroke-linecap: square"/>
   </g>
   <g id="patch_46">
    <path d="M 57.6 307.584 
L 57.6 41.472 
" style="fill: none; stroke: #000000; stroke-width: 0.8; stroke-linejoin: miter; stroke-linecap: square"/>
   </g>
   <g id="patch_47">
    <path d="M 414.72 307.584 
L 414.72 41.472 
" style="fill: none; stroke: #000000; stroke-width: 0.8; stroke-linejoin: miter; stroke-linecap: square"/>
   </g>
   <g id="patch_48">
    <path d="M 57.6 307.584 
L 414.72 307.584 
" style="fill: none; stroke: #000000; stroke-width: 0.8; stroke-linejoin: miter; stroke-linecap: square"/>
   </g>
   <g id="patch_49">
    <path d="M 57.6 41.472 
L 414.72 41.472 
" style="fill: none; stroke: #000000; stroke-width: 0.8; stroke-linejoin: miter; stroke-linecap: square"/>
   </g>
  </g>
 </g>
 <defs>
  <clipPath id="p22171d1f52">
   <rect x="57.6" y="41.472" width="357.12" height="266.112"/>
  </clipPath>
 </defs>
</svg>
