<?xml version="1.0" encoding="utf-8" standalone="no"?>
<!DOCTYPE svg PUBLIC "-//W3C//DTD SVG 1.1//EN"
  "http://www.w3.org/Graphics/SVG/1.1/DTD/svg11.dtd">
<svg xmlns:xlink="http://www.w3.org/1999/xlink" width="460.8pt" height="345.6pt" viewBox="0 0 460.8 345.6" xmlns="http://www.w3.org/2000/svg" version="1.1">
 <metadata>
  <rdf:RDF xmlns:dc="http://purl.org/dc/elements/1.1/" xmlns:cc="http://creativecommons.org/ns#" xmlns:rdf="http://www.w3.org/1999/02/22-rdf-syntax-ns#">
   <cc:Work>
    <dc:type rdf:resource="http://purl.org/dc/dcmitype/StillImage"/>
    <dc:date>2024-11-05T16:23:09.518304</dc:date>
    <dc:format>image/svg+xml</dc:format>
    <dc:creator>
     <cc:Agent>
      <dc:title>Matplotlib v3.8.4, https://matplotlib.org/</dc:title>
     </cc:Agent>
    </dc:creator>
   </cc:Work>
  </rdf:RDF>
 </metadata>
 <defs>
  <style type="text/css">*{stroke-linejoin: round; stroke-linecap: butt}</style>
 </defs>
 <g id="figure_1">
  <g id="patch_1">
   <path d="M 0 345.6 
L 460.8 345.6 
L 460.8 0 
L 0 0 
z
" style="fill: #ffffff"/>
  </g>
  <g id="axes_1">
   <g id="patch_2">
    <path d="M 57.6 307.584 
L 414.72 307.584 
L 414.72 41.472 
L 57.6 41.472 
z
" style="fill: #ffffff"/>
   </g>
   <g id="patch_3">
    <path d="M 73.832727 307.584 
L 83.38139 307.584 
L 83.38139 306.353709 
L 73.832727 306.353709 
z
" clip-path="url(#p721006c14c)" style="fill: #0000ff; fill-opacity: 0.5"/>
   </g>
   <g id="patch_4">
    <path d="M 83.38139 307.584 
L 92.930053 307.584 
L 92.930053 305.123417 
L 83.38139 305.123417 
z
" clip-path="url(#p721006c14c)" style="fill: #0000ff; fill-opacity: 0.5"/>
   </g>
   <g id="patch_5">
    <path d="M 92.930053 307.584 
L 102.478717 307.584 
L 102.478717 302.662835 
L 92.930053 302.662835 
z
" clip-path="url(#p721006c14c)" style="fill: #0000ff; fill-opacity: 0.5"/>
   </g>
   <g id="patch_6">
    <path d="M 102.478717 307.584 
L 112.02738 307.584 
L 112.02738 286.053903 
L 102.478717 286.053903 
z
" clip-path="url(#p721006c14c)" style="fill: #0000ff; fill-opacity: 0.5"/>
   </g>
   <g id="patch_7">
    <path d="M 112.02738 307.584 
L 121.576043 307.584 
L 121.576043 228.230214 
L 112.02738 228.230214 
z
" clip-path="url(#p721006c14c)" style="fill: #0000ff; fill-opacity: 0.5"/>
   </g>
   <g id="patch_8">
    <path d="M 121.576043 307.584 
L 131.124706 307.584 
L 131.124706 142.109825 
L 121.576043 142.109825 
z
" clip-path="url(#p721006c14c)" style="fill: #0000ff; fill-opacity: 0.5"/>
   </g>
   <g id="patch_9">
    <path d="M 131.124706 307.584 
L 140.673369 307.584 
L 140.673369 54.144 
L 131.124706 54.144 
z
" clip-path="url(#p721006c14c)" style="fill: #0000ff; fill-opacity: 0.5"/>
   </g>
   <g id="patch_10">
    <path d="M 140.673369 307.584 
L 150.222032 307.584 
L 150.222032 92.898175 
L 140.673369 92.898175 
z
" clip-path="url(#p721006c14c)" style="fill: #0000ff; fill-opacity: 0.5"/>
   </g>
   <g id="patch_11">
    <path d="M 150.222032 307.584 
L 159.770695 307.584 
L 159.770695 75.058951 
L 150.222032 75.058951 
z
" clip-path="url(#p721006c14c)" style="fill: #0000ff; fill-opacity: 0.5"/>
   </g>
   <g id="patch_12">
    <path d="M 159.770695 307.584 
L 169.319358 307.584 
L 169.319358 132.267495 
L 159.770695 132.267495 
z
" clip-path="url(#p721006c14c)" style="fill: #0000ff; fill-opacity: 0.5"/>
   </g>
   <g id="patch_13">
    <path d="M 169.319358 307.584 
L 178.868021 307.584 
L 178.868021 150.106718 
L 169.319358 150.106718 
z
" clip-path="url(#p721006c14c)" style="fill: #0000ff; fill-opacity: 0.5"/>
   </g>
   <g id="patch_14">
    <path d="M 178.868021 307.584 
L 188.416684 307.584 
L 188.416684 195.01235 
L 178.868021 195.01235 
z
" clip-path="url(#p721006c14c)" style="fill: #0000ff; fill-opacity: 0.5"/>
   </g>
   <g id="patch_15">
    <path d="M 188.416684 307.584 
L 197.965348 307.584 
L 197.965348 169.791379 
L 188.416684 169.791379 
z
" clip-path="url(#p721006c14c)" style="fill: #0000ff; fill-opacity: 0.5"/>
   </g>
   <g id="patch_16">
    <path d="M 197.965348 307.584 
L 207.514011 307.584 
L 207.514011 190.70633 
L 197.965348 190.70633 
z
" clip-path="url(#p721006c14c)" style="fill: #0000ff; fill-opacity: 0.5"/>
   </g>
   <g id="patch_17">
    <path d="M 207.514011 307.584 
L 217.062674 307.584 
L 217.062674 143.340117 
L 207.514011 143.340117 
z
" clip-path="url(#p721006c14c)" style="fill: #0000ff; fill-opacity: 0.5"/>
   </g>
   <g id="patch_18">
    <path d="M 217.062674 307.584 
L 226.611337 307.584 
L 226.611337 110.122252 
L 217.062674 110.122252 
z
" clip-path="url(#p721006c14c)" style="fill: #0000ff; fill-opacity: 0.5"/>
   </g>
   <g id="patch_19">
    <path d="M 226.611337 307.584 
L 236.16 307.584 
L 236.16 182.094291 
L 226.611337 182.094291 
z
" clip-path="url(#p721006c14c)" style="fill: #0000ff; fill-opacity: 0.5"/>
   </g>
   <g id="patch_20">
    <path d="M 236.16 307.584 
L 245.708663 307.584 
L 245.708663 175.942835 
L 236.16 175.942835 
z
" clip-path="url(#p721006c14c)" style="fill: #0000ff; fill-opacity: 0.5"/>
   </g>
   <g id="patch_21">
    <path d="M 245.708663 307.584 
L 255.257326 307.584 
L 255.257326 159.949049 
L 245.708663 159.949049 
z
" clip-path="url(#p721006c14c)" style="fill: #0000ff; fill-opacity: 0.5"/>
   </g>
   <g id="patch_22">
    <path d="M 255.257326 307.584 
L 264.805989 307.584 
L 264.805989 204.85468 
L 255.257326 204.85468 
z
" clip-path="url(#p721006c14c)" style="fill: #0000ff; fill-opacity: 0.5"/>
   </g>
   <g id="patch_23">
    <path d="M 264.805989 307.584 
L 274.354652 307.584 
L 274.354652 263.90866 
L 264.805989 263.90866 
z
" clip-path="url(#p721006c14c)" style="fill: #0000ff; fill-opacity: 0.5"/>
   </g>
   <g id="patch_24">
    <path d="M 274.354652 307.584 
L 283.903316 307.584 
L 283.903316 258.987495 
L 274.354652 258.987495 
z
" clip-path="url(#p721006c14c)" style="fill: #0000ff; fill-opacity: 0.5"/>
   </g>
   <g id="patch_25">
    <path d="M 283.903316 307.584 
L 293.451979 307.584 
L 293.451979 276.211573 
L 283.903316 276.211573 
z
" clip-path="url(#p721006c14c)" style="fill: #0000ff; fill-opacity: 0.5"/>
   </g>
   <g id="patch_26">
    <path d="M 293.451979 307.584 
L 303.000642 307.584 
L 303.000642 298.971961 
L 293.451979 298.971961 
z
" clip-path="url(#p721006c14c)" style="fill: #0000ff; fill-opacity: 0.5"/>
   </g>
   <g id="patch_27">
    <path d="M 303.000642 307.584 
L 312.549305 307.584 
L 312.549305 302.662835 
L 303.000642 302.662835 
z
" clip-path="url(#p721006c14c)" style="fill: #0000ff; fill-opacity: 0.5"/>
   </g>
   <g id="patch_28">
    <path d="M 312.549305 307.584 
L 322.097968 307.584 
L 322.097968 295.896233 
L 312.549305 295.896233 
z
" clip-path="url(#p721006c14c)" style="fill: #0000ff; fill-opacity: 0.5"/>
   </g>
   <g id="patch_29">
    <path d="M 322.097968 307.584 
L 331.646631 307.584 
L 331.646631 303.893126 
L 322.097968 303.893126 
z
" clip-path="url(#p721006c14c)" style="fill: #0000ff; fill-opacity: 0.5"/>
   </g>
   <g id="patch_30">
    <path d="M 331.646631 307.584 
L 341.195294 307.584 
L 341.195294 302.047689 
L 331.646631 302.047689 
z
" clip-path="url(#p721006c14c)" style="fill: #0000ff; fill-opacity: 0.5"/>
   </g>
   <g id="patch_31">
    <path d="M 341.195294 307.584 
L 350.743957 307.584 
L 350.743957 304.508272 
L 341.195294 304.508272 
z
" clip-path="url(#p721006c14c)" style="fill: #0000ff; fill-opacity: 0.5"/>
   </g>
   <g id="patch_32">
    <path d="M 350.743957 307.584 
L 360.29262 307.584 
L 360.29262 307.584 
L 350.743957 307.584 
z
" clip-path="url(#p721006c14c)" style="fill: #0000ff; fill-opacity: 0.5"/>
   </g>
   <g id="patch_33">
    <path d="M 360.29262 307.584 
L 369.841283 307.584 
L 369.841283 307.584 
L 360.29262 307.584 
z
" clip-path="url(#p721006c14c)" style="fill: #0000ff; fill-opacity: 0.5"/>
   </g>
   <g id="patch_34">
    <path d="M 369.841283 307.584 
L 379.389947 307.584 
L 379.389947 303.277981 
L 369.841283 303.277981 
z
" clip-path="url(#p721006c14c)" style="fill: #0000ff; fill-opacity: 0.5"/>
   </g>
   <g id="patch_35">
    <path d="M 379.389947 307.584 
L 388.93861 307.584 
L 388.93861 307.584 
L 379.389947 307.584 
z
" clip-path="url(#p721006c14c)" style="fill: #0000ff; fill-opacity: 0.5"/>
   </g>
   <g id="patch_36">
    <path d="M 388.93861 307.584 
L 398.487273 307.584 
L 398.487273 303.893126 
L 388.93861 303.893126 
z
" clip-path="url(#p721006c14c)" style="fill: #0000ff; fill-opacity: 0.5"/>
   </g>
   <g id="matplotlib.axis_1">
    <g id="xtick_1">
     <g id="line2d_1">
      <defs>
       <path id="m6f7205d1df" d="M 0 0 
L 0 3.5 
" style="stroke: #000000; stroke-width: 0.8"/>
      </defs>
      <g>
       <use xlink:href="#m6f7205d1df" x="103.737796" y="307.584" style="stroke: #000000; stroke-width: 0.8"/>
      </g>
     </g>
     <g id="text_1">
      <!-- 0.0 -->
      <g transform="translate(95.786234 322.182437) scale(0.1 -0.1)">
       <defs>
        <path id="DejaVuSans-30" d="M 2034 4250 
Q 1547 4250 1301 3770 
Q 1056 3291 1056 2328 
Q 1056 1369 1301 889 
Q 1547 409 2034 409 
Q 2525 409 2770 889 
Q 3016 1369 3016 2328 
Q 3016 3291 2770 3770 
Q 2525 4250 2034 4250 
z
M 2034 4750 
Q 2819 4750 3233 4129 
Q 3647 3509 3647 2328 
Q 3647 1150 3233 529 
Q 2819 -91 2034 -91 
Q 1250 -91 836 529 
Q 422 1150 422 2328 
Q 422 3509 836 4129 
Q 1250 4750 2034 4750 
z
" transform="scale(0.015625)"/>
        <path id="DejaVuSans-2e" d="M 684 794 
L 1344 794 
L 1344 0 
L 684 0 
L 684 794 
z
" transform="scale(0.015625)"/>
       </defs>
       <use xlink:href="#DejaVuSans-30"/>
       <use xlink:href="#DejaVuSans-2e" x="63.623047"/>
       <use xlink:href="#DejaVuSans-30" x="95.410156"/>
      </g>
     </g>
    </g>
    <g id="xtick_2">
     <g id="line2d_2">
      <g>
       <use xlink:href="#m6f7205d1df" x="161.862323" y="307.584" style="stroke: #000000; stroke-width: 0.8"/>
      </g>
     </g>
     <g id="text_2">
      <!-- 0.2 -->
      <g transform="translate(153.910761 322.182437) scale(0.1 -0.1)">
       <defs>
        <path id="DejaVuSans-32" d="M 1228 531 
L 3431 531 
L 3431 0 
L 469 0 
L 469 531 
Q 828 903 1448 1529 
Q 2069 2156 2228 2338 
Q 2531 2678 2651 2914 
Q 2772 3150 2772 3378 
Q 2772 3750 2511 3984 
Q 2250 4219 1831 4219 
Q 1534 4219 1204 4116 
Q 875 4013 500 3803 
L 500 4441 
Q 881 4594 1212 4672 
Q 1544 4750 1819 4750 
Q 2544 4750 2975 4387 
Q 3406 4025 3406 3419 
Q 3406 3131 3298 2873 
Q 3191 2616 2906 2266 
Q 2828 2175 2409 1742 
Q 1991 1309 1228 531 
z
" transform="scale(0.015625)"/>
       </defs>
       <use xlink:href="#DejaVuSans-30"/>
       <use xlink:href="#DejaVuSans-2e" x="63.623047"/>
       <use xlink:href="#DejaVuSans-32" x="95.410156"/>
      </g>
     </g>
    </g>
    <g id="xtick_3">
     <g id="line2d_3">
      <g>
       <use xlink:href="#m6f7205d1df" x="219.98685" y="307.584" style="stroke: #000000; stroke-width: 0.8"/>
      </g>
     </g>
     <g id="text_3">
      <!-- 0.4 -->
      <g transform="translate(212.035288 322.182437) scale(0.1 -0.1)">
       <defs>
        <path id="DejaVuSans-34" d="M 2419 4116 
L 825 1625 
L 2419 1625 
L 2419 4116 
z
M 2253 4666 
L 3047 4666 
L 3047 1625 
L 3713 1625 
L 3713 1100 
L 3047 1100 
L 3047 0 
L 2419 0 
L 2419 1100 
L 313 1100 
L 313 1709 
L 2253 4666 
z
" transform="scale(0.015625)"/>
       </defs>
       <use xlink:href="#DejaVuSans-30"/>
       <use xlink:href="#DejaVuSans-2e" x="63.623047"/>
       <use xlink:href="#DejaVuSans-34" x="95.410156"/>
      </g>
     </g>
    </g>
    <g id="xtick_4">
     <g id="line2d_4">
      <g>
       <use xlink:href="#m6f7205d1df" x="278.111377" y="307.584" style="stroke: #000000; stroke-width: 0.8"/>
      </g>
     </g>
     <g id="text_4">
      <!-- 0.6 -->
      <g transform="translate(270.159815 322.182437) scale(0.1 -0.1)">
       <defs>
        <path id="DejaVuSans-36" d="M 2113 2584 
Q 1688 2584 1439 2293 
Q 1191 2003 1191 1497 
Q 1191 994 1439 701 
Q 1688 409 2113 409 
Q 2538 409 2786 701 
Q 3034 994 3034 1497 
Q 3034 2003 2786 2293 
Q 2538 2584 2113 2584 
z
M 3366 4563 
L 3366 3988 
Q 3128 4100 2886 4159 
Q 2644 4219 2406 4219 
Q 1781 4219 1451 3797 
Q 1122 3375 1075 2522 
Q 1259 2794 1537 2939 
Q 1816 3084 2150 3084 
Q 2853 3084 3261 2657 
Q 3669 2231 3669 1497 
Q 3669 778 3244 343 
Q 2819 -91 2113 -91 
Q 1303 -91 875 529 
Q 447 1150 447 2328 
Q 447 3434 972 4092 
Q 1497 4750 2381 4750 
Q 2619 4750 2861 4703 
Q 3103 4656 3366 4563 
z
" transform="scale(0.015625)"/>
       </defs>
       <use xlink:href="#DejaVuSans-30"/>
       <use xlink:href="#DejaVuSans-2e" x="63.623047"/>
       <use xlink:href="#DejaVuSans-36" x="95.410156"/>
      </g>
     </g>
    </g>
    <g id="xtick_5">
     <g id="line2d_5">
      <g>
       <use xlink:href="#m6f7205d1df" x="336.235904" y="307.584" style="stroke: #000000; stroke-width: 0.8"/>
      </g>
     </g>
     <g id="text_5">
      <!-- 0.8 -->
      <g transform="translate(328.284342 322.182437) scale(0.1 -0.1)">
       <defs>
        <path id="DejaVuSans-38" d="M 2034 2216 
Q 1584 2216 1326 1975 
Q 1069 1734 1069 1313 
Q 1069 891 1326 650 
Q 1584 409 2034 409 
Q 2484 409 2743 651 
Q 3003 894 3003 1313 
Q 3003 1734 2745 1975 
Q 2488 2216 2034 2216 
z
M 1403 2484 
Q 997 2584 770 2862 
Q 544 3141 544 3541 
Q 544 4100 942 4425 
Q 1341 4750 2034 4750 
Q 2731 4750 3128 4425 
Q 3525 4100 3525 3541 
Q 3525 3141 3298 2862 
Q 3072 2584 2669 2484 
Q 3125 2378 3379 2068 
Q 3634 1759 3634 1313 
Q 3634 634 3220 271 
Q 2806 -91 2034 -91 
Q 1263 -91 848 271 
Q 434 634 434 1313 
Q 434 1759 690 2068 
Q 947 2378 1403 2484 
z
M 1172 3481 
Q 1172 3119 1398 2916 
Q 1625 2713 2034 2713 
Q 2441 2713 2670 2916 
Q 2900 3119 2900 3481 
Q 2900 3844 2670 4047 
Q 2441 4250 2034 4250 
Q 1625 4250 1398 4047 
Q 1172 3844 1172 3481 
z
" transform="scale(0.015625)"/>
       </defs>
       <use xlink:href="#DejaVuSans-30"/>
       <use xlink:href="#DejaVuSans-2e" x="63.623047"/>
       <use xlink:href="#DejaVuSans-38" x="95.410156"/>
      </g>
     </g>
    </g>
    <g id="xtick_6">
     <g id="line2d_6">
      <g>
       <use xlink:href="#m6f7205d1df" x="394.360431" y="307.584" style="stroke: #000000; stroke-width: 0.8"/>
      </g>
     </g>
     <g id="text_6">
      <!-- 1.0 -->
      <g transform="translate(386.408869 322.182437) scale(0.1 -0.1)">
       <defs>
        <path id="DejaVuSans-31" d="M 794 531 
L 1825 531 
L 1825 4091 
L 703 3866 
L 703 4441 
L 1819 4666 
L 2450 4666 
L 2450 531 
L 3481 531 
L 3481 0 
L 794 0 
L 794 531 
z
" transform="scale(0.015625)"/>
       </defs>
       <use xlink:href="#DejaVuSans-31"/>
       <use xlink:href="#DejaVuSans-2e" x="63.623047"/>
       <use xlink:href="#DejaVuSans-30" x="95.410156"/>
      </g>
     </g>
    </g>
    <g id="text_7">
     <!-- s -->
     <g transform="translate(233.555312 335.860562) scale(0.1 -0.1)">
      <defs>
       <path id="DejaVuSans-73" d="M 2834 3397 
L 2834 2853 
Q 2591 2978 2328 3040 
Q 2066 3103 1784 3103 
Q 1356 3103 1142 2972 
Q 928 2841 928 2578 
Q 928 2378 1081 2264 
Q 1234 2150 1697 2047 
L 1894 2003 
Q 2506 1872 2764 1633 
Q 3022 1394 3022 966 
Q 3022 478 2636 193 
Q 2250 -91 1575 -91 
Q 1294 -91 989 -36 
Q 684 19 347 128 
L 347 722 
Q 666 556 975 473 
Q 1284 391 1588 391 
Q 1994 391 2212 530 
Q 2431 669 2431 922 
Q 2431 1156 2273 1281 
Q 2116 1406 1581 1522 
L 1381 1569 
Q 847 1681 609 1914 
Q 372 2147 372 2553 
Q 372 3047 722 3315 
Q 1072 3584 1716 3584 
Q 2034 3584 2315 3537 
Q 2597 3491 2834 3397 
z
" transform="scale(0.015625)"/>
      </defs>
      <use xlink:href="#DejaVuSans-73"/>
     </g>
    </g>
   </g>
   <g id="matplotlib.axis_2">
    <g id="ytick_1">
     <g id="line2d_7">
      <defs>
       <path id="m3d1cf370f9" d="M 0 0 
L -3.5 0 
" style="stroke: #000000; stroke-width: 0.8"/>
      </defs>
      <g>
       <use xlink:href="#m3d1cf370f9" x="57.6" y="307.584" style="stroke: #000000; stroke-width: 0.8"/>
      </g>
     </g>
     <g id="text_8">
      <!-- 0.0 -->
      <g transform="translate(34.696875 311.383219) scale(0.1 -0.1)">
       <use xlink:href="#DejaVuSans-30"/>
       <use xlink:href="#DejaVuSans-2e" x="63.623047"/>
       <use xlink:href="#DejaVuSans-30" x="95.410156"/>
      </g>
     </g>
    </g>
    <g id="ytick_2">
     <g id="line2d_8">
      <g>
       <use xlink:href="#m3d1cf370f9" x="57.6" y="262.998198" style="stroke: #000000; stroke-width: 0.8"/>
      </g>
     </g>
     <g id="text_9">
      <!-- 0.5 -->
      <g transform="translate(34.696875 266.797416) scale(0.1 -0.1)">
       <defs>
        <path id="DejaVuSans-35" d="M 691 4666 
L 3169 4666 
L 3169 4134 
L 1269 4134 
L 1269 2991 
Q 1406 3038 1543 3061 
Q 1681 3084 1819 3084 
Q 2600 3084 3056 2656 
Q 3513 2228 3513 1497 
Q 3513 744 3044 326 
Q 2575 -91 1722 -91 
Q 1428 -91 1123 -41 
Q 819 9 494 109 
L 494 744 
Q 775 591 1075 516 
Q 1375 441 1709 441 
Q 2250 441 2565 725 
Q 2881 1009 2881 1497 
Q 2881 1984 2565 2268 
Q 2250 2553 1709 2553 
Q 1456 2553 1204 2497 
Q 953 2441 691 2322 
L 691 4666 
z
" transform="scale(0.015625)"/>
       </defs>
       <use xlink:href="#DejaVuSans-30"/>
       <use xlink:href="#DejaVuSans-2e" x="63.623047"/>
       <use xlink:href="#DejaVuSans-35" x="95.410156"/>
      </g>
     </g>
    </g>
    <g id="ytick_3">
     <g id="line2d_9">
      <g>
       <use xlink:href="#m3d1cf370f9" x="57.6" y="218.412395" style="stroke: #000000; stroke-width: 0.8"/>
      </g>
     </g>
     <g id="text_10">
      <!-- 1.0 -->
      <g transform="translate(34.696875 222.211614) scale(0.1 -0.1)">
       <use xlink:href="#DejaVuSans-31"/>
       <use xlink:href="#DejaVuSans-2e" x="63.623047"/>
       <use xlink:href="#DejaVuSans-30" x="95.410156"/>
      </g>
     </g>
    </g>
    <g id="ytick_4">
     <g id="line2d_10">
      <g>
       <use xlink:href="#m3d1cf370f9" x="57.6" y="173.826593" style="stroke: #000000; stroke-width: 0.8"/>
      </g>
     </g>
     <g id="text_11">
      <!-- 1.5 -->
      <g transform="translate(34.696875 177.625812) scale(0.1 -0.1)">
       <use xlink:href="#DejaVuSans-31"/>
       <use xlink:href="#DejaVuSans-2e" x="63.623047"/>
       <use xlink:href="#DejaVuSans-35" x="95.410156"/>
      </g>
     </g>
    </g>
    <g id="ytick_5">
     <g id="line2d_11">
      <g>
       <use xlink:href="#m3d1cf370f9" x="57.6" y="129.24079" style="stroke: #000000; stroke-width: 0.8"/>
      </g>
     </g>
     <g id="text_12">
      <!-- 2.0 -->
      <g transform="translate(34.696875 133.040009) scale(0.1 -0.1)">
       <use xlink:href="#DejaVuSans-32"/>
       <use xlink:href="#DejaVuSans-2e" x="63.623047"/>
       <use xlink:href="#DejaVuSans-30" x="95.410156"/>
      </g>
     </g>
    </g>
    <g id="ytick_6">
     <g id="line2d_12">
      <g>
       <use xlink:href="#m3d1cf370f9" x="57.6" y="84.654988" style="stroke: #000000; stroke-width: 0.8"/>
      </g>
     </g>
     <g id="text_13">
      <!-- 2.5 -->
      <g transform="translate(34.696875 88.454207) scale(0.1 -0.1)">
       <use xlink:href="#DejaVuSans-32"/>
       <use xlink:href="#DejaVuSans-2e" x="63.623047"/>
       <use xlink:href="#DejaVuSans-35" x="95.410156"/>
      </g>
     </g>
    </g>
    <g id="text_14">
     <!-- Density -->
     <g transform="translate(28.617187 193.536594) rotate(-90) scale(0.1 -0.1)">
      <defs>
       <path id="DejaVuSans-44" d="M 1259 4147 
L 1259 519 
L 2022 519 
Q 2988 519 3436 956 
Q 3884 1394 3884 2338 
Q 3884 3275 3436 3711 
Q 2988 4147 2022 4147 
L 1259 4147 
z
M 628 4666 
L 1925 4666 
Q 3281 4666 3915 4102 
Q 4550 3538 4550 2338 
Q 4550 1131 3912 565 
Q 3275 0 1925 0 
L 628 0 
L 628 4666 
z
" transform="scale(0.015625)"/>
       <path id="DejaVuSans-65" d="M 3597 1894 
L 3597 1613 
L 953 1613 
Q 991 1019 1311 708 
Q 1631 397 2203 397 
Q 2534 397 2845 478 
Q 3156 559 3463 722 
L 3463 178 
Q 3153 47 2828 -22 
Q 2503 -91 2169 -91 
Q 1331 -91 842 396 
Q 353 884 353 1716 
Q 353 2575 817 3079 
Q 1281 3584 2069 3584 
Q 2775 3584 3186 3129 
Q 3597 2675 3597 1894 
z
M 3022 2063 
Q 3016 2534 2758 2815 
Q 2500 3097 2075 3097 
Q 1594 3097 1305 2825 
Q 1016 2553 972 2059 
L 3022 2063 
z
" transform="scale(0.015625)"/>
       <path id="DejaVuSans-6e" d="M 3513 2113 
L 3513 0 
L 2938 0 
L 2938 2094 
Q 2938 2591 2744 2837 
Q 2550 3084 2163 3084 
Q 1697 3084 1428 2787 
Q 1159 2491 1159 1978 
L 1159 0 
L 581 0 
L 581 3500 
L 1159 3500 
L 1159 2956 
Q 1366 3272 1645 3428 
Q 1925 3584 2291 3584 
Q 2894 3584 3203 3211 
Q 3513 2838 3513 2113 
z
" transform="scale(0.015625)"/>
       <path id="DejaVuSans-69" d="M 603 3500 
L 1178 3500 
L 1178 0 
L 603 0 
L 603 3500 
z
M 603 4863 
L 1178 4863 
L 1178 4134 
L 603 4134 
L 603 4863 
z
" transform="scale(0.015625)"/>
       <path id="DejaVuSans-74" d="M 1172 4494 
L 1172 3500 
L 2356 3500 
L 2356 3053 
L 1172 3053 
L 1172 1153 
Q 1172 725 1289 603 
Q 1406 481 1766 481 
L 2356 481 
L 2356 0 
L 1766 0 
Q 1100 0 847 248 
Q 594 497 594 1153 
L 594 3053 
L 172 3053 
L 172 3500 
L 594 3500 
L 594 4494 
L 1172 4494 
z
" transform="scale(0.015625)"/>
       <path id="DejaVuSans-79" d="M 2059 -325 
Q 1816 -950 1584 -1140 
Q 1353 -1331 966 -1331 
L 506 -1331 
L 506 -850 
L 844 -850 
Q 1081 -850 1212 -737 
Q 1344 -625 1503 -206 
L 1606 56 
L 191 3500 
L 800 3500 
L 1894 763 
L 2988 3500 
L 3597 3500 
L 2059 -325 
z
" transform="scale(0.015625)"/>
      </defs>
      <use xlink:href="#DejaVuSans-44"/>
      <use xlink:href="#DejaVuSans-65" x="77.001953"/>
      <use xlink:href="#DejaVuSans-6e" x="138.525391"/>
      <use xlink:href="#DejaVuSans-73" x="201.904297"/>
      <use xlink:href="#DejaVuSans-69" x="254.003906"/>
      <use xlink:href="#DejaVuSans-74" x="281.787109"/>
      <use xlink:href="#DejaVuSans-79" x="320.996094"/>
     </g>
    </g>
   </g>
   <g id="line2d_13">
    <path d="M 73.832727 306.751245 
L 78.727017 306.375015 
L 81.989877 305.963017 
L 85.252736 305.296523 
L 86.884166 304.820461 
L 88.515596 304.215838 
L 90.147026 303.450396 
L 91.778456 302.484262 
L 93.409886 301.26854 
L 95.041316 299.744324 
L 96.672746 297.842468 
L 98.304175 295.484422 
L 99.935605 292.58437 
L 101.567035 289.052746 
L 103.198465 284.801058 
L 104.829895 279.747742 
L 106.461325 273.824561 
L 108.092755 266.982972 
L 109.724185 259.199805 
L 111.355614 250.481669 
L 112.987044 240.867652 
L 116.249904 219.273802 
L 119.512764 195.369148 
L 126.038483 146.387478 
L 127.669913 135.146092 
L 129.301343 124.751788 
L 130.932773 115.410587 
L 132.564203 107.301181 
L 134.195633 100.561216 
L 135.827063 95.273576 
L 137.458492 91.454925 
L 139.089922 89.049069 
L 140.721352 87.927539 
L 142.352782 87.898942 
L 143.984212 88.727247 
L 145.615642 90.157368 
L 148.878502 93.884313 
L 153.772791 99.576511 
L 157.035651 103.491238 
L 158.667081 105.812279 
L 160.298511 108.542769 
L 161.929941 111.767507 
L 163.56137 115.519143 
L 165.1928 119.773589 
L 168.45566 129.450251 
L 174.98138 149.85022 
L 176.61281 154.46507 
L 178.244239 158.729677 
L 179.875669 162.611383 
L 181.507099 166.099618 
L 183.138529 169.200953 
L 184.769959 171.933133 
L 186.401389 174.318196 
L 188.032819 176.374837 
L 189.664249 178.110531 
L 191.295678 179.514361 
L 192.927108 180.551936 
L 194.558538 181.163824 
L 196.189968 181.268738 
L 197.821398 180.771999 
L 199.452828 179.579008 
L 201.084258 177.612493 
L 202.715688 174.831463 
L 204.347117 171.249196 
L 205.978547 166.947296 
L 209.241407 156.887035 
L 212.504267 146.708989 
L 214.135697 142.398174 
L 215.767127 139.032741 
L 217.398556 136.864509 
L 219.029986 136.054564 
L 220.661416 136.654177 
L 222.292846 138.599009 
L 223.924276 141.717536 
L 225.555706 145.752256 
L 228.818566 155.298194 
L 232.081425 164.693004 
L 233.712855 168.696485 
L 235.344285 172.037079 
L 236.975715 174.664771 
L 238.607145 176.604907 
L 240.238575 177.9472 
L 241.870005 178.831509 
L 246.764294 180.568008 
L 248.395724 181.494833 
L 250.027154 182.89712 
L 251.658584 184.914643 
L 253.290014 187.644362 
L 254.921444 191.132125 
L 256.552873 195.367978 
L 258.184303 200.286306 
L 259.815733 205.771448 
L 263.078593 217.798953 
L 266.341453 230.028431 
L 269.604312 241.195096 
L 271.235742 246.132014 
L 272.867172 250.591888 
L 274.498602 254.590482 
L 276.130032 258.174638 
L 277.761462 261.411807 
L 281.024322 267.152946 
L 285.918611 274.919104 
L 292.444331 284.828694 
L 295.70719 289.322622 
L 297.33862 291.328052 
L 298.97005 293.125793 
L 300.60148 294.690544 
L 302.23291 296.008318 
L 303.86434 297.0781 
L 305.49577 297.912137 
L 307.1272 298.534785 
L 308.75863 298.980026 
L 312.021489 299.500643 
L 321.810069 300.531179 
L 326.704358 301.396962 
L 334.861508 303.156116 
L 341.387227 304.531161 
L 346.281517 305.323184 
L 351.175806 305.873744 
L 356.070096 306.176839 
L 360.964386 306.171311 
L 374.015825 305.672577 
L 380.541544 305.958687 
L 385.435834 306.135239 
L 393.592983 306.118651 
L 398.487273 306.213189 
L 398.487273 306.213189 
" clip-path="url(#p721006c14c)" style="fill: none; stroke: #0000ff; stroke-width: 1.5; stroke-linecap: square"/>
   </g>
   <g id="patch_37">
    <path d="M 57.6 307.584 
L 57.6 41.472 
" style="fill: none; stroke: #000000; stroke-width: 0.8; stroke-linejoin: miter; stroke-linecap: square"/>
   </g>
   <g id="patch_38">
    <path d="M 414.72 307.584 
L 414.72 41.472 
" style="fill: none; stroke: #000000; stroke-width: 0.8; stroke-linejoin: miter; stroke-linecap: square"/>
   </g>
   <g id="patch_39">
    <path d="M 57.6 307.584 
L 414.72 307.584 
" style="fill: none; stroke: #000000; stroke-width: 0.8; stroke-linejoin: miter; stroke-linecap: square"/>
   </g>
   <g id="patch_40">
    <path d="M 57.6 41.472 
L 414.72 41.472 
" style="fill: none; stroke: #000000; stroke-width: 0.8; stroke-linejoin: miter; stroke-linecap: square"/>
   </g>
  </g>
 </g>
 <defs>
  <clipPath id="p721006c14c">
   <rect x="57.6" y="41.472" width="357.12" height="266.112"/>
  </clipPath>
 </defs>
</svg>
